<svg xmlns="http://www.w3.org/2000/svg" xmlns:xlink="http://www.w3.org/1999/xlink" width="6912" zoomAndPan="magnify" viewBox="0 0 5184 1151.999944" height="1536" preserveAspectRatio="xMidYMid meet" version="1.0"><defs><g/><clipPath id="a821f5a1a9"><path d="M 90.09375 77.730469 L 699.164062 77.730469 L 699.164062 1074.789062 L 90.09375 1074.789062 Z M 90.09375 77.730469 " clip-rule="nonzero"/></clipPath><clipPath id="18a8f1cc45"><path d="M 152.035156 142.40625 L 637.175781 142.40625 L 637.175781 627.546875 L 152.035156 627.546875 Z M 152.035156 142.40625 " clip-rule="nonzero"/></clipPath><clipPath id="df1475bf39"><path d="M 394.605469 142.40625 C 260.636719 142.40625 152.035156 251.007812 152.035156 384.976562 C 152.035156 518.945312 260.636719 627.546875 394.605469 627.546875 C 528.574219 627.546875 637.175781 518.945312 637.175781 384.976562 C 637.175781 251.007812 528.574219 142.40625 394.605469 142.40625 Z M 394.605469 142.40625 " clip-rule="nonzero"/></clipPath><clipPath id="2c00132601"><path d="M 194.222656 184.59375 L 595.214844 184.59375 L 595.214844 585.585938 L 194.222656 585.585938 Z M 194.222656 184.59375 " clip-rule="nonzero"/></clipPath></defs><g clip-path="url(#a821f5a1a9)"><path fill="#ff0000" d="M 699.164062 382.449219 C 699.164062 550.78125 394.628906 1074.78125 394.628906 1074.78125 C 394.628906 1074.78125 90.09375 550.78125 90.09375 382.449219 C 90.09375 214.117188 226.476562 77.730469 394.628906 77.730469 C 562.78125 77.730469 699.164062 214.195312 699.164062 382.449219 Z M 699.164062 382.449219 " fill-opacity="1" fill-rule="nonzero"/></g><path fill="#ffffff" d="M 639.910156 380.621094 C 639.910156 384.636719 639.808594 388.644531 639.617188 392.664062 C 639.414062 396.671875 639.117188 400.679688 638.722656 404.675781 C 638.339844 408.671875 637.84375 412.660156 637.257812 416.632812 C 636.667969 420.605469 635.980469 424.558594 635.203125 428.496094 C 634.410156 432.4375 633.53125 436.355469 632.558594 440.25 C 631.578125 444.15625 630.515625 448.015625 629.34375 451.867188 C 628.179688 455.703125 626.925781 459.519531 625.570312 463.300781 C 624.21875 467.082031 622.773438 470.832031 621.238281 474.546875 C 619.703125 478.25 618.074219 481.917969 616.359375 485.550781 C 614.644531 489.1875 612.835938 492.765625 610.941406 496.3125 C 609.054688 499.855469 607.082031 503.355469 605.015625 506.796875 C 602.949219 510.242188 600.804688 513.628906 598.566406 516.96875 C 596.34375 520.3125 594.03125 523.597656 591.636719 526.824219 C 589.242188 530.042969 586.78125 533.214844 584.230469 536.320312 C 581.691406 539.425781 579.058594 542.460938 576.375 545.441406 C 573.675781 548.410156 570.910156 551.324219 568.066406 554.167969 C 565.230469 557 562.320312 559.765625 559.351562 562.464844 C 556.371094 565.164062 553.332031 567.792969 550.226562 570.335938 C 547.132812 572.886719 543.960938 575.359375 540.746094 577.75 C 537.515625 580.144531 534.230469 582.457031 530.902344 584.683594 C 527.558594 586.917969 524.171875 589.0625 520.730469 591.128906 C 517.285156 593.195312 513.796875 595.171875 510.253906 597.066406 C 506.707031 598.964844 503.128906 600.769531 499.496094 602.484375 C 495.871094 604.203125 492.203125 605.828125 488.488281 607.363281 C 484.785156 608.898438 481.035156 610.355469 477.265625 611.699219 C 473.484375 613.050781 469.667969 614.316406 465.832031 615.480469 C 461.992188 616.640625 458.121094 617.714844 454.226562 618.695312 C 450.332031 619.667969 446.414062 620.546875 442.484375 621.328125 C 438.542969 622.117188 434.59375 622.804688 430.621094 623.394531 C 426.644531 623.980469 422.660156 624.476562 418.664062 624.871094 C 414.679688 625.257812 410.671875 625.5625 406.664062 625.753906 C 402.65625 625.945312 398.636719 626.046875 394.628906 626.046875 C 390.609375 626.046875 386.601562 625.945312 382.59375 625.753906 C 378.585938 625.5625 374.578125 625.257812 370.582031 624.871094 C 366.585938 624.476562 362.613281 623.980469 358.640625 623.394531 C 354.664062 622.804688 350.714844 622.117188 346.773438 621.328125 C 342.835938 620.546875 338.929688 619.667969 335.035156 618.695312 C 331.140625 617.714844 327.265625 616.640625 323.429688 615.480469 C 319.589844 614.316406 315.773438 613.050781 311.992188 611.699219 C 308.210938 610.355469 304.472656 608.898438 300.761719 607.363281 C 297.058594 605.828125 293.386719 604.203125 289.753906 602.484375 C 286.128906 600.769531 282.539062 598.964844 279.003906 597.066406 C 275.460938 595.171875 271.972656 593.195312 268.53125 591.128906 C 265.085938 589.0625 261.699219 586.917969 258.359375 584.683594 C 255.015625 582.457031 251.742188 580.144531 248.511719 577.75 C 245.285156 575.359375 242.125 572.886719 239.019531 570.335938 C 235.914062 567.792969 232.878906 565.164062 229.910156 562.464844 C 226.929688 559.765625 224.027344 557 221.183594 554.167969 C 218.347656 551.324219 215.582031 548.410156 212.886719 545.441406 C 210.1875 542.460938 207.566406 539.425781 205.027344 536.320312 C 202.476562 533.214844 200.003906 530.042969 197.609375 526.824219 C 195.230469 523.597656 192.914062 520.3125 190.679688 516.96875 C 188.457031 513.628906 186.308594 510.242188 184.246094 506.796875 C 182.179688 503.355469 180.203125 499.855469 178.304688 496.3125 C 176.421875 492.765625 174.613281 489.1875 172.898438 485.550781 C 171.183594 481.917969 169.558594 478.25 168.023438 474.546875 C 166.488281 470.832031 165.042969 467.082031 163.6875 463.300781 C 162.332031 459.519531 161.066406 455.703125 159.90625 451.867188 C 158.742188 448.015625 157.667969 444.15625 156.699219 440.25 C 155.714844 436.355469 154.847656 432.4375 154.058594 428.496094 C 153.277344 424.558594 152.589844 420.605469 152.003906 416.632812 C 151.414062 412.660156 150.917969 408.671875 150.523438 404.675781 C 150.128906 400.679688 149.835938 396.671875 149.644531 392.664062 C 149.441406 388.644531 149.347656 384.636719 149.347656 380.621094 C 149.347656 376.601562 149.441406 372.59375 149.644531 368.574219 C 149.835938 364.566406 150.128906 360.558594 150.523438 356.5625 C 150.917969 352.566406 151.414062 348.582031 152.003906 344.605469 C 152.589844 340.632812 153.277344 336.683594 154.058594 332.742188 C 154.847656 328.800781 155.714844 324.886719 156.699219 320.992188 C 157.667969 317.085938 158.742188 313.222656 159.90625 309.375 C 161.066406 305.535156 162.332031 301.71875 163.6875 297.9375 C 165.042969 294.15625 166.488281 290.40625 168.023438 286.695312 C 169.558594 282.992188 171.183594 279.3125 172.898438 275.6875 C 174.613281 272.050781 176.421875 268.460938 178.304688 264.929688 C 180.203125 261.382812 182.179688 257.882812 184.246094 254.441406 C 186.308594 250.996094 188.457031 247.609375 190.679688 244.269531 C 192.914062 240.925781 195.230469 237.640625 197.609375 234.414062 C 200.003906 231.195312 202.476562 228.023438 205.027344 224.917969 C 207.566406 221.816406 210.1875 218.777344 212.886719 215.796875 C 215.582031 212.828125 218.347656 209.917969 221.183594 207.070312 C 224.027344 204.238281 226.929688 201.460938 229.910156 198.773438 C 232.878906 196.074219 235.914062 193.445312 239.019531 190.90625 C 242.125 188.355469 245.285156 185.882812 248.511719 183.488281 C 251.742188 181.09375 255.015625 178.78125 258.359375 176.554688 C 261.699219 174.320312 265.085938 172.175781 268.53125 170.109375 C 271.972656 168.042969 275.460938 166.070312 279.003906 164.171875 C 282.539062 162.277344 286.128906 160.46875 289.753906 158.753906 C 293.386719 157.039062 297.058594 155.410156 300.761719 153.875 C 304.472656 152.328125 308.210938 150.886719 311.992188 149.542969 C 315.773438 148.1875 319.589844 146.921875 323.429688 145.757812 C 327.265625 144.597656 331.140625 143.523438 335.035156 142.542969 C 338.929688 141.570312 342.835938 140.691406 346.773438 139.902344 C 350.714844 139.121094 354.664062 138.433594 358.640625 137.847656 C 362.613281 137.257812 366.585938 136.761719 370.582031 136.367188 C 374.578125 135.984375 378.585938 135.679688 382.59375 135.488281 C 386.601562 135.285156 390.609375 135.191406 394.628906 135.191406 C 398.636719 135.191406 402.65625 135.285156 406.664062 135.488281 C 410.671875 135.679688 414.679688 135.984375 418.664062 136.367188 C 422.660156 136.761719 426.644531 137.257812 430.621094 137.847656 C 434.59375 138.433594 438.542969 139.121094 442.484375 139.902344 C 446.414062 140.691406 450.332031 141.570312 454.226562 142.542969 C 458.121094 143.523438 461.992188 144.597656 465.832031 145.757812 C 469.667969 146.921875 473.484375 148.1875 477.265625 149.542969 C 481.035156 150.886719 484.785156 152.328125 488.488281 153.875 C 492.203125 155.410156 495.871094 157.039062 499.496094 158.753906 C 503.128906 160.46875 506.707031 162.277344 510.253906 164.171875 C 513.796875 166.070312 517.285156 168.042969 520.730469 170.109375 C 524.171875 172.175781 527.558594 174.320312 530.902344 176.554688 C 534.230469 178.78125 537.515625 181.09375 540.746094 183.488281 C 543.960938 185.882812 547.132812 188.355469 550.226562 190.90625 C 553.332031 193.445312 556.371094 196.074219 559.351562 198.773438 C 562.320312 201.460938 565.230469 204.238281 568.066406 207.070312 C 570.910156 209.917969 573.675781 212.828125 576.375 215.796875 C 579.058594 218.777344 581.691406 221.816406 584.230469 224.917969 C 586.78125 228.023438 589.242188 231.195312 591.636719 234.414062 C 594.03125 237.640625 596.34375 240.925781 598.566406 244.269531 C 600.804688 247.609375 602.949219 250.996094 605.015625 254.441406 C 607.082031 257.882812 609.054688 261.382812 610.941406 264.929688 C 612.835938 268.460938 614.644531 272.050781 616.359375 275.6875 C 618.074219 279.3125 619.703125 282.992188 621.238281 286.695312 C 622.773438 290.40625 624.21875 294.15625 625.570312 297.9375 C 626.925781 301.71875 628.179688 305.535156 629.34375 309.375 C 630.515625 313.222656 631.578125 317.085938 632.558594 320.992188 C 633.53125 324.886719 634.410156 328.800781 635.203125 332.742188 C 635.980469 336.683594 636.667969 340.632812 637.257812 344.605469 C 637.84375 348.582031 638.339844 352.566406 638.722656 356.5625 C 639.117188 360.558594 639.414062 364.566406 639.617188 368.574219 C 639.808594 372.59375 639.910156 376.601562 639.910156 380.621094 Z M 639.910156 380.621094 " fill-opacity="1" fill-rule="nonzero"/><path fill="#ff0000" d="M 267.140625 344.460938 C 267.140625 352.328125 263.808594 358.683594 257.136719 363.605469 C 250.464844 368.539062 241.402344 371 229.964844 371 C 223.371094 371 217.582031 370.449219 212.648438 369.25 C 207.726562 368.066406 203.121094 366.632812 198.828125 364.804688 L 198.828125 345.644531 L 201.054688 345.644531 C 205.34375 349.066406 210.027344 351.683594 215.355469 353.515625 C 220.59375 355.34375 225.675781 356.222656 230.519531 356.222656 C 231.792969 356.222656 233.386719 356.144531 235.453125 355.894531 C 237.519531 355.660156 239.175781 355.34375 240.453125 354.867188 C 242.046875 354.238281 243.308594 353.433594 244.347656 352.488281 C 245.375 351.527344 245.847656 350.105469 245.847656 348.195312 C 245.847656 346.449219 245.136719 344.933594 243.625 343.660156 C 242.125 342.394531 239.980469 341.433594 237.113281 340.722656 C 234.097656 340 230.925781 339.367188 227.582031 338.738281 C 224.253906 338.09375 221.070312 337.304688 218.214844 336.355469 C 211.460938 334.199219 206.699219 331.183594 203.671875 327.449219 C 200.738281 323.710938 199.226562 319.105469 199.226562 313.539062 C 199.226562 306.066406 202.566406 300.027344 209.238281 295.339844 C 215.910156 290.644531 224.492188 288.261719 234.976562 288.261719 C 240.214844 288.261719 245.375 288.738281 250.546875 289.777344 C 255.703125 290.8125 260.074219 292.078125 263.890625 293.589844 L 263.890625 311.949219 L 261.664062 311.949219 C 258.480469 309.40625 254.507812 307.261719 249.824219 305.511719 C 245.136719 303.761719 240.375 302.894531 235.53125 302.894531 C 233.78125 302.894531 232.109375 302.972656 230.441406 303.210938 C 228.78125 303.445312 227.109375 303.84375 225.519531 304.554688 C 224.09375 305.117188 222.898438 305.90625 221.949219 307.027344 C 220.910156 308.132812 220.4375 309.328125 220.4375 310.761719 C 220.4375 312.90625 221.226562 314.5 222.820312 315.605469 C 224.410156 316.722656 227.425781 317.75 231.953125 318.710938 C 234.886719 319.34375 237.675781 319.894531 240.375 320.460938 C 243.070312 321.011719 246.019531 321.804688 249.113281 322.839844 C 255.230469 324.828125 259.757812 327.605469 262.613281 331.027344 C 265.707031 334.445312 267.140625 338.894531 267.140625 344.460938 Z M 267.140625 344.460938 " fill-opacity="1" fill-rule="nonzero"/><path fill="#ff0000" d="M 343.714844 305.117188 L 318.765625 305.117188 L 318.765625 369.488281 L 298.195312 369.488281 L 298.195312 305.117188 L 273.257812 305.117188 L 273.257812 289.695312 L 343.714844 289.695312 Z M 343.714844 305.117188 " fill-opacity="1" fill-rule="nonzero"/><path fill="#ff0000" d="M 429.816406 369.488281 L 408.605469 369.488281 L 403.050781 353.355469 L 373.496094 353.355469 L 367.941406 369.488281 L 347.203125 369.488281 L 376.679688 289.617188 L 400.339844 289.617188 Z M 398.039062 338.738281 L 388.195312 310.117188 L 378.339844 338.738281 Z M 398.039062 338.738281 " fill-opacity="1" fill-rule="nonzero"/><path fill="#ff0000" d="M 518.144531 369.488281 L 492.957031 369.488281 L 471.363281 340.25 L 461.824219 340.25 L 461.824219 369.488281 L 441.332031 369.488281 L 441.332031 289.695312 L 475.890625 289.695312 C 480.574219 289.695312 484.625 289.933594 488.035156 290.488281 C 491.457031 291.050781 494.628906 292.15625 497.574219 293.988281 C 500.589844 295.816406 502.972656 298.117188 504.722656 300.90625 C 506.472656 303.761719 507.339844 307.339844 507.339844 311.632812 C 507.339844 317.511719 505.984375 322.355469 503.207031 326.09375 C 500.511719 329.828125 496.535156 332.933594 491.535156 335.394531 Z M 486.050781 314.09375 C 486.050781 312.105469 485.652344 310.355469 484.785156 308.933594 C 483.984375 307.5 482.5625 306.382812 480.574219 305.511719 C 479.140625 304.960938 477.546875 304.554688 475.730469 304.472656 C 473.902344 304.316406 471.679688 304.316406 469.21875 304.316406 L 461.742188 304.316406 L 461.742188 325.855469 L 468.097656 325.855469 C 471.363281 325.855469 474.140625 325.699219 476.363281 325.382812 C 478.585938 325.066406 480.414062 324.34375 481.917969 323.15625 C 483.351562 322.039062 484.390625 320.855469 485.023438 319.5 C 485.734375 318.144531 486.050781 316.394531 486.050781 314.09375 Z M 486.050781 314.09375 " fill-opacity="1" fill-rule="nonzero"/><path fill="#ff0000" d="M 589.628906 305.117188 L 564.6875 305.117188 L 564.6875 369.488281 L 544.121094 369.488281 L 544.121094 305.117188 L 519.171875 305.117188 L 519.171875 289.695312 L 589.628906 289.695312 Z M 589.628906 305.117188 " fill-opacity="1" fill-rule="nonzero"/><path fill="#ff0000" d="M 332.59375 480.28125 L 312.015625 480.28125 L 312.015625 445.082031 L 281.601562 445.082031 L 281.601562 480.28125 L 261.023438 480.28125 L 261.023438 400.410156 L 281.601562 400.410156 L 281.601562 429.660156 L 312.015625 429.660156 L 312.015625 400.410156 L 332.59375 400.410156 Z M 332.59375 480.28125 " fill-opacity="1" fill-rule="nonzero"/><path fill="#ff0000" d="M 410.671875 480.28125 L 352.925781 480.28125 L 352.925781 400.410156 L 410.671875 400.410156 L 410.671875 415.832031 L 373.417969 415.832031 L 373.417969 429.582031 L 407.972656 429.582031 L 407.972656 445 L 373.417969 445 L 373.417969 464.710938 L 410.671875 464.710938 Z M 410.671875 480.28125 " fill-opacity="1" fill-rule="nonzero"/><path fill="#ff0000" d="M 504.800781 480.28125 L 479.613281 480.28125 L 457.9375 451.042969 L 448.398438 451.042969 L 448.398438 480.28125 L 427.910156 480.28125 L 427.910156 400.410156 L 462.464844 400.410156 C 467.152344 400.410156 471.203125 400.648438 474.613281 401.199219 C 478.035156 401.765625 481.207031 402.871094 484.140625 404.699219 C 487.167969 406.527344 489.546875 408.832031 491.296875 411.621094 C 493.035156 414.476562 493.917969 418.054688 493.917969 422.34375 C 493.917969 428.226562 492.5625 433.082031 489.785156 436.804688 C 487.085938 440.542969 483.113281 443.648438 478.113281 446.109375 Z M 472.707031 424.882812 C 472.707031 422.898438 472.308594 421.148438 471.441406 419.726562 C 470.640625 418.292969 469.21875 417.175781 467.230469 416.304688 C 465.796875 415.75 464.203125 415.355469 462.386719 415.277344 C 460.558594 415.109375 458.335938 415.109375 455.875 415.109375 L 448.398438 415.109375 L 448.398438 436.648438 L 454.753906 436.648438 C 458.019531 436.648438 460.796875 436.488281 463.019531 436.171875 C 465.242188 435.859375 467.070312 435.144531 468.574219 433.949219 C 470.007812 432.832031 471.035156 431.648438 471.679688 430.292969 C 472.390625 428.9375 472.707031 427.199219 472.707031 424.882812 Z M 472.707031 424.882812 " fill-opacity="1" fill-rule="nonzero"/><path fill="#ff0000" d="M 571.519531 480.28125 L 513.773438 480.28125 L 513.773438 400.410156 L 571.519531 400.410156 L 571.519531 415.832031 L 534.265625 415.832031 L 534.265625 429.582031 L 568.820312 429.582031 L 568.820312 445 L 534.265625 445 L 534.265625 464.710938 L 571.519531 464.710938 Z M 571.519531 480.28125 " fill-opacity="1" fill-rule="nonzero"/><g clip-path="url(#18a8f1cc45)"><g clip-path="url(#df1475bf39)"><path fill="#ffffff" d="M 152.035156 142.40625 L 637.175781 142.40625 L 637.175781 627.546875 L 152.035156 627.546875 Z M 152.035156 142.40625 " fill-opacity="1" fill-rule="nonzero"/></g></g><path fill="#ff0000" d="M 454.789062 408.074219 C 450.25 408.074219 445.925781 409.441406 442.246094 411.945312 C 438.441406 409.136719 433.90625 407.554688 429.082031 407.554688 C 423.125 407.554688 417.523438 409.871094 413.3125 414.09375 C 411.359375 416.046875 411.359375 419.21875 413.3125 421.171875 C 415.277344 423.132812 418.449219 423.132812 420.402344 421.171875 C 425.042969 416.542969 433.125 416.53125 437.777344 421.171875 C 440.089844 423.496094 441.367188 426.578125 441.367188 429.863281 C 441.367188 433.136719 440.089844 436.21875 437.777344 438.542969 C 435.8125 440.496094 435.8125 443.667969 437.777344 445.632812 C 438.746094 446.617188 440.035156 447.101562 441.308594 447.101562 C 442.597656 447.101562 443.882812 446.617188 444.855469 445.632812 C 449.078125 441.410156 451.390625 435.8125 451.390625 429.863281 C 451.390625 426.261719 450.453125 422.839844 448.851562 419.726562 C 453.503906 417.253906 459.65625 417.875 463.472656 421.691406 C 464.453125 422.671875 465.730469 423.15625 467.015625 423.15625 C 468.300781 423.15625 469.578125 422.671875 470.558594 421.691406 C 472.511719 419.738281 472.511719 416.5625 470.558594 414.601562 C 466.347656 410.390625 460.75 408.074219 454.789062 408.074219 Z M 454.789062 408.074219 " fill-opacity="1" fill-rule="nonzero"/><path fill="#ff0000" d="M 494.832031 393.636719 C 493.601562 392.347656 492.269531 391.152344 490.871094 390.058594 C 497.089844 385.609375 501.109375 378.328125 501.109375 370.324219 C 501.109375 359.375 493.792969 350.058594 483.792969 347.035156 C 486.09375 339.15625 485.699219 330.664062 482.550781 322.558594 C 478.867188 313.097656 470.976562 305.445312 461.4375 302.101562 C 453.625 299.359375 445.632812 299.101562 438.273438 301.199219 C 438.601562 297.28125 437.980469 293.242188 436.367188 289.3125 C 433.871094 283.261719 428.914062 278.53125 422.75 276.351562 C 414.882812 273.554688 406.597656 274.613281 400.015625 279.265625 C 397.960938 280.710938 396.199219 282.484375 394.71875 284.4375 C 393.230469 282.484375 391.46875 280.710938 389.414062 279.265625 C 382.84375 274.613281 374.558594 273.554688 366.6875 276.351562 C 360.523438 278.53125 355.558594 283.261719 353.0625 289.3125 C 351.449219 293.242188 350.828125 297.28125 351.167969 301.199219 C 343.804688 299.101562 335.8125 299.359375 327.988281 302.101562 C 318.449219 305.445312 310.558594 313.097656 306.878906 322.558594 C 303.730469 330.664062 303.332031 339.15625 305.636719 347.035156 C 295.644531 350.058594 288.332031 359.375 288.332031 370.324219 C 288.332031 378.328125 292.347656 385.609375 298.570312 390.058594 C 297.160156 391.152344 295.835938 392.347656 294.605469 393.636719 C 288.003906 400.523438 284.367188 409.578125 284.367188 419.117188 C 284.367188 435.125 294.574219 449 309.316406 454.011719 C 307.929688 460.152344 308.59375 466.519531 311.328125 472.707031 C 314.171875 479.175781 319.601562 484.445312 326.21875 487.179688 C 334.027344 490.394531 342.144531 490.351562 349.472656 487.121094 C 355.070312 492.484375 362.320312 495.339844 369.917969 495.339844 C 373.753906 495.339844 377.683594 494.617188 381.535156 493.117188 C 386.976562 490.992188 391.523438 487.15625 394.71875 482.324219 C 397.902344 487.15625 402.453125 490.992188 407.90625 493.117188 C 411.753906 494.617188 415.683594 495.339844 419.511719 495.339844 C 427.121094 495.339844 434.367188 492.484375 439.964844 487.121094 C 447.292969 490.351562 455.410156 490.394531 463.210938 487.179688 C 469.828125 484.445312 475.257812 479.175781 478.101562 472.707031 C 480.832031 466.519531 481.5 460.152344 480.109375 454.011719 C 494.867188 449 505.070312 435.125 505.070312 419.117188 C 505.070312 409.578125 501.425781 400.523438 494.832031 393.636719 Z M 377.886719 483.78125 C 367.386719 487.867188 358.921875 483.351562 354.484375 477.773438 C 353.503906 476.53125 352.046875 475.878906 350.554688 475.878906 C 349.652344 475.878906 348.75 476.113281 347.9375 476.621094 C 344.085938 478.992188 337.878906 481.136719 330.042969 477.910156 C 325.789062 476.160156 322.3125 472.785156 320.503906 468.664062 C 317.480469 461.8125 318.742188 456.109375 320.324219 452.53125 C 320.957031 451.121094 320.886719 449.496094 320.164062 448.140625 C 319.445312 446.773438 318.121094 445.824219 316.609375 445.566406 C 303.730469 443.308594 294.394531 432.1875 294.394531 419.117188 C 294.394531 412.171875 297.035156 405.578125 301.84375 400.566406 C 304.574219 397.710938 307.960938 395.453125 311.632812 394.042969 C 313.765625 393.230469 315.0625 391.074219 314.816406 388.816406 C 314.566406 386.546875 312.816406 384.738281 310.570312 384.402344 C 303.492188 383.363281 298.355469 377.4375 298.355469 370.324219 C 298.355469 362.476562 304.746094 356.066406 312.601562 356.03125 C 314.328125 356.019531 315.945312 355.117188 316.847656 353.636719 C 317.75 352.160156 317.828125 350.320312 317.050781 348.761719 C 314.589844 343.851562 312.433594 335.949219 316.226562 326.195312 C 318.855469 319.421875 324.5 313.945312 331.308594 311.550781 C 340.65625 308.277344 350.296875 309.78125 357.726562 315.660156 C 359.757812 317.265625 362.667969 317.0625 364.453125 315.199219 C 366.25 313.335938 366.316406 310.414062 364.632812 308.460938 C 360.929688 304.167969 360.085938 298.582031 362.332031 293.128906 C 363.71875 289.753906 366.597656 287.011719 370.042969 285.789062 C 374.792969 284.097656 379.75 284.707031 383.632812 287.449219 C 387.4375 290.136719 389.707031 294.507812 389.707031 299.15625 L 389.707031 434.433594 C 385.28125 430.957031 379.785156 428.800781 373.746094 428.800781 C 359.417969 428.800781 347.769531 440.453125 347.769531 454.777344 C 347.769531 457.542969 350.003906 459.789062 352.78125 459.789062 C 355.546875 459.789062 357.792969 457.542969 357.792969 454.777344 C 357.792969 445.984375 364.949219 438.828125 373.746094 438.828125 C 382.550781 438.828125 389.707031 445.984375 389.707031 454.777344 L 389.707031 465.527344 C 389.707031 473.6875 384.953125 481.027344 377.886719 483.78125 Z M 472.828125 445.566406 C 471.304688 445.824219 469.996094 446.773438 469.261719 448.140625 C 468.539062 449.496094 468.484375 451.121094 469.105469 452.53125 C 470.695312 456.109375 471.949219 461.8125 468.933594 468.664062 C 467.117188 472.785156 463.640625 476.160156 459.394531 477.910156 C 451.5625 481.136719 445.339844 478.992188 441.503906 476.621094 C 439.335938 475.289062 436.523438 475.789062 434.941406 477.773438 C 430.519531 483.351562 422.050781 487.867188 411.539062 483.78125 C 404.472656 481.027344 399.730469 473.6875 399.730469 465.527344 L 399.730469 365.34375 C 404.144531 368.824219 409.644531 370.980469 415.683594 370.980469 C 430.007812 370.980469 441.671875 359.328125 441.671875 345.003906 C 441.671875 342.238281 439.425781 339.988281 436.660156 339.988281 C 433.882812 339.988281 431.648438 342.238281 431.648438 345.003906 C 431.648438 353.796875 424.488281 360.953125 415.683594 360.953125 C 406.890625 360.953125 399.730469 353.796875 399.730469 345.003906 L 399.730469 299.15625 C 399.730469 294.507812 402 290.136719 405.792969 287.449219 C 408.234375 285.734375 411.089844 284.855469 414.046875 284.855469 C 415.808594 284.855469 417.613281 285.167969 419.398438 285.789062 C 422.828125 287.011719 425.707031 289.753906 427.097656 293.128906 C 429.34375 298.582031 428.507812 304.167969 424.804688 308.460938 C 423.113281 310.414062 423.179688 313.335938 424.976562 315.199219 C 426.757812 317.074219 429.683594 317.265625 431.703125 315.660156 C 439.140625 309.769531 448.761719 308.277344 458.121094 311.550781 C 464.9375 313.945312 470.570312 319.421875 473.203125 326.195312 C 476.996094 335.949219 474.851562 343.851562 472.378906 348.761719 C 471.597656 350.320312 471.679688 352.160156 472.582031 353.636719 C 473.484375 355.117188 475.097656 356.019531 476.835938 356.03125 C 484.695312 356.066406 491.085938 362.476562 491.085938 370.324219 C 491.085938 377.4375 485.949219 383.363281 478.859375 384.402344 C 476.609375 384.738281 474.863281 386.546875 474.613281 388.816406 C 474.363281 391.074219 475.675781 393.230469 477.796875 394.042969 C 481.464844 395.453125 484.851562 397.710938 487.59375 400.566406 C 492.394531 405.578125 495.046875 412.171875 495.046875 419.117188 C 495.046875 432.1875 485.699219 443.308594 472.828125 445.566406 Z M 472.828125 445.566406 " fill-opacity="1" fill-rule="nonzero"/><path fill="#ff0000" d="M 357.410156 385.339844 C 357.410156 388.105469 359.644531 390.351562 362.421875 390.351562 C 365.1875 390.351562 367.433594 388.105469 367.433594 385.339844 C 367.433594 377.480469 363.335938 370.59375 357.183594 366.621094 C 357.207031 366.597656 357.238281 366.585938 357.261719 366.554688 C 365.953125 357.859375 365.953125 343.703125 357.261719 335.011719 C 355.308594 333.046875 352.136719 333.046875 350.171875 335.011719 C 348.21875 336.964844 348.21875 340.136719 350.171875 342.101562 C 354.960938 346.886719 354.960938 354.675781 350.171875 359.464844 C 345.386719 364.261719 337.585938 364.261719 332.796875 359.464844 C 330.84375 357.511719 327.671875 357.511719 325.71875 359.464844 C 323.757812 361.429688 323.757812 364.601562 325.71875 366.554688 C 330.066406 370.910156 335.777344 373.078125 341.492188 373.078125 C 342.347656 373.078125 343.195312 372.933594 344.054688 372.832031 C 344.402344 372.910156 344.742188 373.042969 345.113281 373.042969 C 351.886719 373.042969 357.410156 378.566406 357.410156 385.339844 Z M 357.410156 385.339844 " fill-opacity="1" fill-rule="nonzero"/><g clip-path="url(#2c00132601)"><path fill="#ff0000" d="M 590.203125 390.101562 C 592.96875 390.101562 595.214844 387.855469 595.214844 385.089844 C 595.214844 382.324219 592.96875 380.078125 590.203125 380.078125 L 545.089844 380.078125 L 545.089844 309.90625 L 571.203125 309.90625 C 573.144531 314.328125 577.546875 317.421875 582.683594 317.421875 C 589.605469 317.421875 595.214844 311.8125 595.214844 304.890625 C 595.214844 297.972656 589.605469 292.359375 582.683594 292.359375 C 577.546875 292.359375 573.144531 295.453125 571.203125 299.878906 L 545.089844 299.878906 L 545.089844 259.78125 C 545.089844 245.960938 533.847656 234.71875 520.03125 234.71875 L 479.953125 234.71875 L 479.953125 189.605469 C 479.953125 186.839844 477.707031 184.59375 474.941406 184.59375 C 472.164062 184.59375 469.929688 186.839844 469.929688 189.605469 L 469.929688 234.71875 L 399.753906 234.71875 L 399.753906 189.605469 C 399.753906 186.839844 397.507812 184.59375 394.742188 184.59375 C 391.964844 184.59375 389.730469 186.839844 389.730469 189.605469 L 389.730469 234.71875 L 319.554688 234.71875 L 319.554688 208.59375 C 323.96875 206.664062 327.074219 202.261719 327.074219 197.125 C 327.074219 190.207031 321.464844 184.59375 314.542969 184.59375 C 307.625 184.59375 302.011719 190.207031 302.011719 197.125 C 302.011719 202.261719 305.105469 206.664062 309.53125 208.59375 L 309.53125 234.71875 L 269.410156 234.71875 C 255.59375 234.71875 244.347656 245.960938 244.347656 259.78125 L 244.347656 299.878906 L 199.238281 299.878906 C 196.460938 299.878906 194.222656 302.125 194.222656 304.890625 C 194.222656 307.65625 196.460938 309.90625 199.238281 309.90625 L 244.347656 309.90625 L 244.347656 380.078125 L 199.238281 380.078125 C 196.460938 380.078125 194.222656 382.324219 194.222656 385.089844 C 194.222656 387.855469 196.460938 390.101562 199.238281 390.101562 L 244.347656 390.101562 L 244.347656 460.277344 L 218.226562 460.277344 C 216.292969 455.851562 211.890625 452.757812 206.753906 452.757812 C 199.835938 452.757812 194.222656 458.367188 194.222656 465.289062 C 194.222656 472.207031 199.835938 477.820312 206.753906 477.820312 C 211.890625 477.820312 216.292969 474.726562 218.226562 470.300781 L 244.347656 470.300781 L 244.347656 510.398438 C 244.347656 524.21875 255.59375 535.460938 269.410156 535.460938 L 309.507812 535.460938 L 309.507812 561.628906 C 305.09375 563.570312 302.011719 567.964844 302.011719 573.101562 C 302.011719 580.019531 307.625 585.632812 314.542969 585.632812 C 321.464844 585.632812 327.074219 580.019531 327.074219 573.101562 C 327.074219 567.953125 323.960938 563.539062 319.535156 561.609375 L 319.535156 535.460938 L 389.707031 535.460938 L 389.707031 580.574219 C 389.707031 583.339844 391.941406 585.585938 394.71875 585.585938 C 397.484375 585.585938 399.730469 583.339844 399.730469 580.574219 L 399.730469 535.460938 L 469.90625 535.460938 L 469.90625 580.574219 C 469.90625 583.339844 472.140625 585.585938 474.917969 585.585938 C 477.683594 585.585938 479.929688 583.339844 479.929688 580.574219 L 479.929688 535.460938 L 520.03125 535.460938 C 533.847656 535.460938 545.089844 524.21875 545.089844 510.398438 L 545.089844 470.300781 L 590.203125 470.300781 C 592.96875 470.300781 595.214844 468.054688 595.214844 465.289062 C 595.214844 462.523438 592.96875 460.277344 590.203125 460.277344 L 545.089844 460.277344 L 545.089844 390.101562 Z M 535.066406 510.398438 C 535.066406 518.6875 528.316406 525.4375 520.03125 525.4375 L 269.410156 525.4375 C 261.113281 525.4375 254.371094 518.6875 254.371094 510.398438 L 254.371094 259.78125 C 254.371094 251.484375 261.113281 244.742188 269.410156 244.742188 L 520.03125 244.742188 C 528.316406 244.742188 535.066406 251.484375 535.066406 259.78125 Z M 535.066406 510.398438 " fill-opacity="1" fill-rule="nonzero"/></g><g fill="#000000" fill-opacity="1"><g transform="translate(833.456115, 851.321312)"><g><path d="M 212.164062 7.097656 L 274.476562 8.675781 L 290.25 7.097656 L 306.023438 3.15625 L 321.796875 0.789062 L 337.574219 -5.519531 L 351.769531 -7.097656 L 366.753906 -14.195312 L 420.386719 -46.535156 L 443.261719 -70.195312 L 451.148438 -81.238281 L 459.824219 -98.589844 L 464.558594 -112.789062 L 469.289062 -126.195312 L 474.019531 -165.632812 L 472.445312 -190.871094 L 460.613281 -236.617188 L 451.9375 -249.234375 L 431.429688 -272.898438 L 417.234375 -285.515625 L 404.613281 -291.828125 L 390.417969 -300.503906 L 328.898438 -319.433594 L 313.121094 -321.796875 L 297.347656 -322.585938 L 280.785156 -325.742188 L 257.910156 -325.742188 L 216.109375 -334.417969 L 186.925781 -348.613281 L 175.097656 -359.65625 L 171.941406 -383.320312 L 175.886719 -404.613281 L 185.347656 -414.867188 L 197.179688 -423.542969 L 209.800781 -430.640625 L 223.996094 -433.796875 L 249.234375 -434.585938 L 274.476562 -431.429688 L 288.671875 -427.488281 L 302.867188 -418.023438 L 316.277344 -406.980469 L 328.109375 -391.207031 L 345.460938 -380.953125 L 382.53125 -384.105469 L 403.824219 -382.53125 L 419.601562 -382.53125 L 433.796875 -380.953125 L 448.78125 -391.996094 L 455.09375 -405.402344 L 451.9375 -420.386719 L 450.359375 -435.375 L 428.277344 -476.386719 L 410.921875 -500.050781 L 358.867188 -536.332031 L 314.699219 -551.316406 L 283.941406 -557.625 L 223.207031 -559.203125 L 205.855469 -554.472656 L 190.082031 -553.683594 L 175.886719 -551.316406 L 145.914062 -541.851562 L 119.097656 -526.078125 L 81.238281 -500.050781 L 53.632812 -462.980469 L 39.4375 -419.601562 L 37.070312 -380.953125 L 37.859375 -356.5 L 43.378906 -324.953125 L 56 -297.347656 L 85.183594 -261.066406 L 138.816406 -231.882812 L 167.207031 -222.417969 L 291.039062 -208.222656 L 319.433594 -194.8125 L 329.683594 -185.347656 L 334.417969 -165.632812 L 328.109375 -145.914062 L 317.855469 -134.082031 L 291.039062 -122.25 L 266.585938 -120.675781 L 252.390625 -118.308594 L 212.164062 -122.25 L 198.757812 -129.351562 L 185.347656 -138.027344 L 159.320312 -166.421875 L 143.546875 -172.730469 L 129.351562 -171.152344 L 114.363281 -173.519531 L 53.632812 -170.363281 L 39.4375 -164.054688 L 33.125 -147.492188 L 35.492188 -131.714844 L 38.648438 -115.941406 L 43.378906 -101.746094 L 58.367188 -72.5625 L 69.40625 -62.308594 L 79.660156 -50.476562 L 107.265625 -33.125 L 118.308594 -21.296875 L 133.292969 -14.195312 L 149.066406 -9.464844 L 179.828125 1.578125 Z M 212.164062 7.097656 "/></g></g></g><g fill="#000000" fill-opacity="1"><g transform="translate(1336.659225, 851.321312)"><g><path d="M 205.855469 1.578125 L 258.699219 0 L 281.574219 -7.886719 L 289.460938 -29.972656 L 291.828125 -70.984375 L 289.460938 -100.957031 L 291.039062 -117.519531 L 290.25 -149.066406 L 291.828125 -163.265625 L 289.460938 -180.617188 L 291.039062 -307.601562 L 288.671875 -324.164062 L 291.039062 -392.78125 L 297.347656 -416.445312 L 312.332031 -425.910156 L 343.09375 -427.488281 L 372.277344 -423.542969 L 388.839844 -425.910156 L 403.035156 -425.121094 L 416.445312 -433.796875 L 425.910156 -451.148438 L 426.699219 -526.078125 L 418.023438 -541.851562 L 403.035156 -552.105469 L 354.136719 -552.105469 L 339.148438 -553.683594 L 322.585938 -551.316406 L 307.601562 -552.894531 L 243.714844 -549.738281 L 227.941406 -552.894531 L 212.953125 -553.683594 L 196.390625 -551.316406 L 179.039062 -552.894531 L 164.84375 -549.738281 L 118.308594 -552.105469 L 93.859375 -549.738281 L 38.648438 -552.894531 L 23.660156 -545.007812 L 14.195312 -526.867188 L 14.984375 -511.089844 L 13.410156 -471.65625 L 14.984375 -447.203125 L 22.085938 -433.007812 L 36.28125 -425.121094 L 52.054688 -426.699219 L 126.984375 -425.121094 L 141.96875 -417.234375 L 150.644531 -401.460938 L 149.066406 -376.21875 L 150.644531 -354.136719 L 149.855469 -336.785156 L 150.644531 -321.007812 L 149.066406 -298.925781 L 151.433594 -181.40625 L 149.855469 -165.632812 L 149.066406 -101.746094 L 150.644531 -85.183594 L 149.855469 -39.4375 L 148.28125 -24.449219 L 158.53125 -7.097656 L 181.40625 0.789062 Z M 205.855469 1.578125 "/></g></g></g><g fill="#000000" fill-opacity="1"><g transform="translate(1777.553587, 851.321312)"><g><path d="M 465.34375 1.578125 L 495.316406 -0.789062 L 510.300781 0.789062 L 534.753906 0 L 556.835938 -3.945312 L 559.203125 -22.871094 L 553.683594 -41.011719 L 541.851562 -70.195312 L 520.554688 -111.210938 L 509.515625 -140.390625 L 493.738281 -168.785156 L 463.769531 -240.558594 L 455.878906 -252.390625 L 447.992188 -267.375 L 443.261719 -284.726562 L 436.164062 -296.558594 L 431.429688 -309.179688 L 414.867188 -338.363281 L 409.347656 -354.925781 L 357.289062 -464.558594 L 352.558594 -480.332031 L 343.882812 -494.527344 L 339.148438 -508.726562 L 324.164062 -536.332031 L 310.757812 -550.527344 L 284.726562 -558.414062 L 259.488281 -549.738281 L 245.292969 -536.332031 L 238.195312 -522.921875 L 232.671875 -507.148438 L 225.574219 -496.105469 L 194.027344 -423.542969 L 185.347656 -411.710938 L 181.40625 -395.9375 L 172.730469 -380.953125 L 167.996094 -366.753906 L 87.546875 -197.96875 L 82.816406 -180.617188 L 74.929688 -168.785156 L 69.40625 -153.011719 L 55.210938 -127.773438 L 43.378906 -96.222656 L 34.703125 -85.183594 L 30.761719 -70.984375 L 14.984375 -39.4375 L 10.253906 -23.660156 L 14.195312 -3.945312 L 29.972656 0.789062 L 60.730469 -0.789062 L 76.507812 0.789062 L 120.675781 -0.789062 L 138.816406 -6.308594 L 153.800781 -20.507812 L 167.996094 -46.535156 L 182.984375 -61.519531 L 199.546875 -70.195312 L 214.53125 -67.828125 L 247.660156 -70.984375 L 261.855469 -68.617188 L 339.148438 -69.40625 L 353.347656 -67.828125 L 370.699219 -70.195312 L 388.050781 -61.519531 L 403.035156 -48.902344 L 410.136719 -33.914062 L 414.867188 -19.71875 L 430.640625 -7.886719 L 448.78125 0 Z M 286.304688 -194.8125 L 270.53125 -197.96875 L 252.390625 -196.390625 L 239.769531 -201.914062 L 238.984375 -216.898438 L 276.050781 -302.082031 L 284.726562 -309.179688 L 295.769531 -302.867188 L 332.839844 -216.109375 L 329.683594 -201.914062 L 317.855469 -195.601562 Z M 286.304688 -194.8125 "/></g></g></g><g fill="#000000" fill-opacity="1"><g transform="translate(2350.164177, 851.321312)"><g><path d="M 59.152344 -32.335938 L 67.042969 -7.886719 L 89.914062 2.367188 L 105.6875 0 L 130.925781 2.367188 L 143.546875 0.789062 L 167.207031 0.789062 L 192.449219 -7.097656 L 199.546875 -29.972656 L 199.546875 -56.789062 L 201.125 -70.984375 L 198.757812 -87.546875 L 200.335938 -138.027344 L 207.433594 -153.800781 L 222.417969 -162.476562 L 268.164062 -156.167969 L 283.941406 -142.757812 L 293.402344 -126.984375 L 299.714844 -112.789062 L 316.277344 -89.125 L 331.261719 -60.730469 L 339.9375 -48.902344 L 346.25 -33.125 L 354.925781 -19.71875 L 372.277344 -5.519531 L 399.09375 1.578125 L 461.402344 0.789062 L 476.386719 2.367188 L 502.414062 1.578125 L 517.402344 -5.519531 L 522.132812 -22.871094 L 513.457031 -40.226562 L 503.992188 -51.265625 L 497.683594 -66.253906 L 470.867188 -106.476562 L 463.769531 -120.675781 L 438.527344 -161.6875 L 429.0625 -173.519531 L 428.277344 -192.449219 L 435.375 -209.800781 L 446.417969 -221.628906 L 457.457031 -231.09375 L 488.21875 -286.304688 L 498.472656 -332.050781 L 496.894531 -381.742188 L 494.527344 -397.515625 L 480.332031 -442.472656 L 474.019531 -455.878906 L 465.34375 -468.5 L 420.386719 -515.824219 L 392.78125 -530.808594 L 362.8125 -541.0625 L 317.855469 -551.316406 L 292.617188 -552.105469 L 269.742188 -550.527344 L 222.417969 -550.527344 L 206.644531 -553.683594 L 190.871094 -553.683594 L 176.671875 -549.738281 L 160.898438 -549.738281 L 145.125 -552.894531 L 127.773438 -553.683594 L 81.238281 -549.738281 L 67.042969 -541.851562 L 57.578125 -519.765625 L 58.367188 -339.148438 L 59.941406 -323.375 L 57.578125 -291.828125 L 58.367188 -274.476562 L 58.367188 -258.699219 L 59.941406 -243.714844 L 58.367188 -228.730469 L 57.578125 -164.84375 L 59.152344 -149.066406 Z M 222.417969 -288.671875 L 206.644531 -297.347656 L 200.335938 -309.96875 L 200.335938 -357.289062 L 198.757812 -370.699219 L 200.335938 -403.824219 L 207.433594 -418.8125 L 223.996094 -425.121094 L 239.769531 -424.332031 L 271.320312 -427.488281 L 293.402344 -422.753906 L 313.910156 -421.175781 L 328.898438 -417.234375 L 348.613281 -392.78125 L 353.347656 -380.164062 L 356.5 -359.65625 L 354.136719 -335.996094 L 347.039062 -320.222656 L 338.363281 -308.390625 L 329.683594 -301.292969 L 315.488281 -294.980469 L 292.617188 -289.460938 L 277.628906 -288.671875 L 239.769531 -290.25 Z M 222.417969 -288.671875 "/></g></g></g><g fill="#000000" fill-opacity="1"><g transform="translate(2897.535637, 851.321312)"><g><path d="M 205.855469 1.578125 L 258.699219 0 L 281.574219 -7.886719 L 289.460938 -29.972656 L 291.828125 -70.984375 L 289.460938 -100.957031 L 291.039062 -117.519531 L 290.25 -149.066406 L 291.828125 -163.265625 L 289.460938 -180.617188 L 291.039062 -307.601562 L 288.671875 -324.164062 L 291.039062 -392.78125 L 297.347656 -416.445312 L 312.332031 -425.910156 L 343.09375 -427.488281 L 372.277344 -423.542969 L 388.839844 -425.910156 L 403.035156 -425.121094 L 416.445312 -433.796875 L 425.910156 -451.148438 L 426.699219 -526.078125 L 418.023438 -541.851562 L 403.035156 -552.105469 L 354.136719 -552.105469 L 339.148438 -553.683594 L 322.585938 -551.316406 L 307.601562 -552.894531 L 243.714844 -549.738281 L 227.941406 -552.894531 L 212.953125 -553.683594 L 196.390625 -551.316406 L 179.039062 -552.894531 L 164.84375 -549.738281 L 118.308594 -552.105469 L 93.859375 -549.738281 L 38.648438 -552.894531 L 23.660156 -545.007812 L 14.195312 -526.867188 L 14.984375 -511.089844 L 13.410156 -471.65625 L 14.984375 -447.203125 L 22.085938 -433.007812 L 36.28125 -425.121094 L 52.054688 -426.699219 L 126.984375 -425.121094 L 141.96875 -417.234375 L 150.644531 -401.460938 L 149.066406 -376.21875 L 150.644531 -354.136719 L 149.855469 -336.785156 L 150.644531 -321.007812 L 149.066406 -298.925781 L 151.433594 -181.40625 L 149.855469 -165.632812 L 149.066406 -101.746094 L 150.644531 -85.183594 L 149.855469 -39.4375 L 148.28125 -24.449219 L 158.53125 -7.097656 L 181.40625 0.789062 Z M 205.855469 1.578125 "/></g></g></g><g fill="#000000" fill-opacity="1"><g transform="translate(3338.430053, 851.321312)"><g><path d="M 264.222656 3.15625 L 295.769531 1.578125 L 309.96875 -6.308594 L 317.855469 -21.296875 L 317.855469 -99.378906 L 308.390625 -114.363281 L 291.039062 -123.039062 L 274.476562 -123.039062 L 255.546875 -129.351562 L 246.082031 -147.492188 L 248.445312 -162.476562 L 247.660156 -249.234375 L 249.234375 -266.585938 L 246.082031 -323.375 L 249.234375 -403.035156 L 254.757812 -421.175781 L 272.109375 -428.277344 L 287.882812 -430.640625 L 304.445312 -436.953125 L 312.332031 -449.570312 L 313.121094 -527.65625 L 303.65625 -542.640625 L 289.460938 -551.316406 L 194.027344 -551.316406 L 179.828125 -552.894531 L 164.054688 -549.738281 L 99.378906 -549.738281 L 84.394531 -552.105469 L 66.253906 -552.105469 L 50.476562 -544.21875 L 42.589844 -525.289062 L 44.957031 -466.921875 L 43.378906 -451.9375 L 52.054688 -436.164062 L 69.40625 -427.488281 L 85.183594 -427.488281 L 100.167969 -418.023438 L 107.265625 -396.726562 L 109.632812 -154.589844 L 100.957031 -130.925781 L 48.902344 -115.152344 L 40.226562 -100.957031 L 37.859375 -28.394531 L 45.746094 -7.097656 L 61.519531 0 L 76.507812 0 L 91.492188 -1.578125 L 114.363281 1.578125 L 138.816406 0.789062 L 154.589844 -0.789062 L 186.136719 2.367188 L 209.800781 -0.789062 L 248.445312 -0.789062 Z M 264.222656 3.15625 "/></g></g></g><g fill="#000000" fill-opacity="1"><g transform="translate(3696.508964, 851.321312)"><g><path d="M 465.34375 -13.410156 L 486.640625 -0.789062 L 508.726562 1.578125 L 526.078125 -3.945312 L 533.964844 -19.71875 L 535.542969 -307.601562 L 533.175781 -321.007812 L 533.175781 -399.09375 L 535.542969 -418.023438 L 533.175781 -527.65625 L 525.289062 -543.429688 L 509.515625 -552.105469 L 411.710938 -551.316406 L 396.726562 -542.640625 L 388.050781 -526.078125 L 387.261719 -509.515625 L 389.628906 -496.894531 L 387.261719 -463.769531 L 388.839844 -446.417969 L 387.261719 -305.234375 L 382.53125 -291.828125 L 370.699219 -297.347656 L 314.699219 -353.347656 L 292.617188 -370.699219 L 137.238281 -527.65625 L 125.40625 -537.117188 L 107.265625 -546.582031 L 83.605469 -552.105469 L 65.464844 -544.21875 L 58.367188 -529.230469 L 58.367188 -290.25 L 57.578125 -276.839844 L 59.152344 -244.503906 L 56.789062 -231.09375 L 58.367188 -101.746094 L 56.789062 -86.757812 L 58.367188 -20.507812 L 65.464844 -5.519531 L 82.027344 0 L 114.363281 1.578125 L 131.714844 0 L 162.476562 2.367188 L 179.039062 1.578125 L 194.8125 -6.308594 L 202.703125 -30.761719 L 203.488281 -230.304688 L 205.066406 -246.082031 L 210.589844 -259.488281 L 220.84375 -255.546875 L 231.09375 -242.136719 L 287.09375 -188.503906 L 297.347656 -176.671875 L 310.757812 -167.996094 L 433.007812 -46.535156 L 453.515625 -23.660156 Z M 465.34375 -13.410156 "/></g></g></g><g fill="#000000" fill-opacity="1"><g transform="translate(4291.203512, 851.321312)"><g><path d="M 273.6875 7.886719 L 352.558594 7.886719 L 411.710938 -6.308594 L 467.710938 -34.703125 L 492.160156 -53.632812 L 503.992188 -66.253906 L 515.824219 -75.71875 L 525.289062 -86.757812 L 533.175781 -100.167969 L 540.273438 -114.363281 L 549.738281 -125.40625 L 565.511719 -171.941406 L 571.824219 -201.914062 L 572.613281 -215.320312 L 575.765625 -229.519531 L 575.765625 -245.292969 L 577.34375 -260.277344 L 575.765625 -290.25 L 567.878906 -303.65625 L 552.894531 -311.542969 L 536.332031 -312.332031 L 519.765625 -314.699219 L 413.289062 -312.332031 L 365.964844 -315.488281 L 335.996094 -313.121094 L 320.222656 -305.234375 L 313.121094 -290.25 L 313.121094 -215.320312 L 320.222656 -202.703125 L 334.417969 -194.027344 L 357.289062 -192.449219 L 396.726562 -195.601562 L 410.921875 -193.238281 L 422.753906 -187.714844 L 425.121094 -174.308594 L 417.234375 -160.898438 L 405.402344 -147.492188 L 394.359375 -138.816406 L 368.332031 -128.5625 L 337.574219 -121.464844 L 317.066406 -120.675781 L 276.839844 -125.40625 L 234.25 -142.757812 L 210.589844 -164.84375 L 201.914062 -175.886719 L 186.925781 -204.277344 L 180.617188 -227.152344 L 176.671875 -252.390625 L 175.886719 -298.136719 L 181.40625 -328.898438 L 194.027344 -357.289062 L 218.476562 -394.359375 L 246.082031 -414.078125 L 259.488281 -421.175781 L 274.476562 -422.753906 L 287.882812 -429.0625 L 335.996094 -430.640625 L 365.179688 -422.753906 L 380.164062 -416.445312 L 395.148438 -406.191406 L 404.613281 -395.9375 L 414.867188 -382.53125 L 431.429688 -369.121094 L 450.359375 -363.601562 L 474.808594 -362.8125 L 498.472656 -365.964844 L 536.332031 -363.601562 L 556.046875 -372.277344 L 560.78125 -385.683594 L 549.738281 -418.023438 L 542.640625 -432.21875 L 511.089844 -477.964844 L 493.738281 -492.160156 L 481.121094 -503.992188 L 469.289062 -513.457031 L 414.078125 -542.640625 L 397.515625 -545.796875 L 360.445312 -556.046875 L 287.09375 -559.203125 L 271.320312 -558.414062 L 257.910156 -553.683594 L 242.925781 -552.894531 L 182.195312 -530.808594 L 138.816406 -503.992188 L 104.109375 -473.234375 L 93.859375 -460.613281 L 82.027344 -448.78125 L 73.351562 -436.953125 L 44.167969 -377.796875 L 29.972656 -299.714844 L 29.183594 -274.476562 L 33.125 -219.265625 L 55.210938 -145.125 L 69.40625 -118.308594 L 87.546875 -91.492188 L 119.097656 -58.367188 L 145.125 -40.226562 L 199.546875 -8.675781 L 212.953125 -4.730469 L 257.910156 3.15625 Z M 273.6875 7.886719 "/></g></g></g><g fill="#000000" fill-opacity="1"><g transform="translate(4895.362604, 851.321312)"><g><path d="M 99.378906 3.15625 L 119.097656 3.945312 L 127.773438 1.578125 L 135.660156 1.578125 L 144.335938 -1.578125 L 154.589844 -7.886719 L 160.898438 -11.042969 L 167.996094 -17.351562 L 175.097656 -25.238281 L 180.617188 -33.125 L 187.714844 -57.578125 L 188.503906 -75.71875 L 185.347656 -85.183594 L 183.773438 -93.859375 L 179.039062 -104.109375 L 173.519531 -112 L 167.996094 -116.730469 L 162.476562 -124.617188 L 153.800781 -129.351562 L 146.703125 -134.082031 L 137.238281 -135.660156 L 126.984375 -139.605469 L 118.308594 -140.390625 L 100.167969 -139.605469 L 82.816406 -136.449219 L 72.5625 -133.292969 L 66.253906 -130.140625 L 50.476562 -116.730469 L 37.859375 -103.324219 L 35.492188 -95.433594 L 31.550781 -86.757812 L 32.335938 -48.902344 L 34.703125 -40.226562 L 38.648438 -31.550781 L 43.378906 -25.238281 L 52.054688 -18.140625 L 56 -11.832031 L 74.140625 -1.578125 L 81.238281 0.789062 L 91.492188 3.15625 Z M 99.378906 3.15625 "/></g></g></g></svg>