<svg xmlns="http://www.w3.org/2000/svg" xmlns:xlink="http://www.w3.org/1999/xlink" width="500" zoomAndPan="magnify" viewBox="0 0 375 374.999991" height="500" preserveAspectRatio="xMidYMid meet" version="1.0"><defs><clipPath id="715ea545e0"><path d="M 82.132812 15.121094 L 292.882812 15.121094 L 292.882812 360.121094 L 82.132812 360.121094 Z M 82.132812 15.121094 " clip-rule="nonzero"/></clipPath><clipPath id="8947ce290a"><path d="M 103.566406 37.5 L 271.433594 37.5 L 271.433594 205.367188 L 103.566406 205.367188 Z M 103.566406 37.5 " clip-rule="nonzero"/></clipPath><clipPath id="b35ebd2db9"><path d="M 187.5 37.5 C 141.144531 37.5 103.566406 75.078125 103.566406 121.433594 C 103.566406 167.789062 141.144531 205.367188 187.5 205.367188 C 233.855469 205.367188 271.433594 167.789062 271.433594 121.433594 C 271.433594 75.078125 233.855469 37.5 187.5 37.5 Z M 187.5 37.5 " clip-rule="nonzero"/></clipPath><clipPath id="ebec43d157"><path d="M 118.164062 52.097656 L 256.914062 52.097656 L 256.914062 190.847656 L 118.164062 190.847656 Z M 118.164062 52.097656 " clip-rule="nonzero"/></clipPath></defs><g clip-path="url(#715ea545e0)"><path fill="#ff0000" d="M 292.882812 120.558594 C 292.882812 178.804688 187.507812 360.117188 187.507812 360.117188 C 187.507812 360.117188 82.132812 178.804688 82.132812 120.558594 C 82.132812 62.3125 129.324219 15.121094 187.507812 15.121094 C 245.691406 15.121094 292.882812 62.339844 292.882812 120.558594 Z M 292.882812 120.558594 " fill-opacity="1" fill-rule="nonzero"/></g><path fill="#ffffff" d="M 272.378906 119.925781 C 272.378906 121.316406 272.34375 122.703125 272.277344 124.09375 C 272.207031 125.480469 272.105469 126.867188 271.96875 128.25 C 271.835938 129.632812 271.664062 131.011719 271.460938 132.386719 C 271.257812 133.761719 271.019531 135.128906 270.75 136.492188 C 270.476562 137.855469 270.171875 139.210938 269.835938 140.558594 C 269.496094 141.910156 269.128906 143.246094 268.722656 144.578125 C 268.320312 145.90625 267.886719 147.226562 267.417969 148.535156 C 266.949219 149.84375 266.449219 151.140625 265.917969 152.425781 C 265.386719 153.707031 264.824219 154.976562 264.230469 156.234375 C 263.636719 157.492188 263.011719 158.730469 262.355469 159.957031 C 261.703125 161.183594 261.019531 162.394531 260.304688 163.585938 C 259.589844 164.777344 258.847656 165.949219 258.074219 167.105469 C 257.304688 168.261719 256.503906 169.398438 255.675781 170.515625 C 254.847656 171.628906 253.996094 172.726562 253.113281 173.800781 C 252.234375 174.875 251.324219 175.925781 250.394531 176.957031 C 249.460938 177.984375 248.503906 178.992188 247.519531 179.976562 C 246.539062 180.957031 245.53125 181.914062 244.503906 182.847656 C 243.472656 183.78125 242.421875 184.691406 241.347656 185.570312 C 240.277344 186.453125 239.179688 187.308594 238.066406 188.136719 C 236.949219 188.964844 235.8125 189.765625 234.660156 190.535156 C 233.503906 191.308594 232.332031 192.050781 231.140625 192.765625 C 229.949219 193.480469 228.742188 194.164062 227.515625 194.820312 C 226.289062 195.476562 225.050781 196.101562 223.792969 196.695312 C 222.539062 197.289062 221.269531 197.851562 219.984375 198.382812 C 218.703125 198.914062 217.40625 199.417969 216.101562 199.882812 C 214.792969 200.351562 213.472656 200.789062 212.144531 201.191406 C 210.816406 201.59375 209.476562 201.964844 208.128906 202.304688 C 206.78125 202.640625 205.425781 202.945312 204.066406 203.214844 C 202.703125 203.488281 201.335938 203.726562 199.960938 203.929688 C 198.585938 204.132812 197.207031 204.304688 195.824219 204.441406 C 194.445312 204.574219 193.058594 204.679688 191.671875 204.746094 C 190.285156 204.8125 188.894531 204.847656 187.507812 204.847656 C 186.117188 204.847656 184.730469 204.8125 183.34375 204.746094 C 181.957031 204.679688 180.570312 204.574219 179.1875 204.441406 C 177.804688 204.304688 176.429688 204.132812 175.054688 203.929688 C 173.679688 203.726562 172.3125 203.488281 170.949219 203.214844 C 169.585938 202.945312 168.234375 202.640625 166.886719 202.304688 C 165.539062 201.964844 164.199219 201.59375 162.871094 201.191406 C 161.542969 200.789062 160.222656 200.351562 158.914062 199.882812 C 157.605469 199.417969 156.3125 198.914062 155.027344 198.382812 C 153.746094 197.851562 152.476562 197.289062 151.21875 196.695312 C 149.964844 196.101562 148.722656 195.476562 147.5 194.820312 C 146.273438 194.164062 145.066406 193.480469 143.875 192.765625 C 142.683594 192.050781 141.511719 191.308594 140.355469 190.535156 C 139.199219 189.765625 138.066406 188.964844 136.949219 188.136719 C 135.832031 187.308594 134.738281 186.453125 133.664062 185.570312 C 132.589844 184.691406 131.539062 183.78125 130.511719 182.847656 C 129.480469 181.914062 128.476562 180.957031 127.492188 179.976562 C 126.511719 178.992188 125.554688 177.984375 124.621094 176.957031 C 123.6875 175.925781 122.78125 174.875 121.902344 173.800781 C 121.019531 172.726562 120.164062 171.628906 119.335938 170.515625 C 118.511719 169.398438 117.710938 168.261719 116.9375 167.105469 C 116.167969 165.949219 115.425781 164.777344 114.710938 163.585938 C 113.996094 162.394531 113.3125 161.183594 112.65625 159.957031 C 112.003906 158.730469 111.378906 157.492188 110.785156 156.234375 C 110.191406 154.976562 109.628906 153.707031 109.097656 152.425781 C 108.566406 151.140625 108.066406 149.84375 107.597656 148.535156 C 107.128906 147.226562 106.691406 145.90625 106.289062 144.578125 C 105.886719 143.246094 105.515625 141.910156 105.179688 140.558594 C 104.839844 139.210938 104.539062 137.855469 104.265625 136.492188 C 103.996094 135.128906 103.757812 133.761719 103.554688 132.386719 C 103.351562 131.011719 103.179688 129.632812 103.042969 128.25 C 102.90625 126.867188 102.804688 125.480469 102.738281 124.09375 C 102.667969 122.703125 102.636719 121.316406 102.636719 119.925781 C 102.636719 118.535156 102.667969 117.148438 102.738281 115.757812 C 102.804688 114.371094 102.90625 112.984375 103.042969 111.601562 C 103.179688 110.21875 103.351562 108.839844 103.554688 107.464844 C 103.757812 106.089844 103.996094 104.722656 104.265625 103.359375 C 104.539062 101.996094 104.839844 100.640625 105.179688 99.292969 C 105.515625 97.941406 105.886719 96.605469 106.289062 95.273438 C 106.691406 93.945312 107.128906 92.625 107.597656 91.316406 C 108.066406 90.007812 108.566406 88.710938 109.097656 87.425781 C 109.628906 86.144531 110.191406 84.871094 110.785156 83.617188 C 111.378906 82.359375 112.003906 81.117188 112.65625 79.894531 C 113.3125 78.667969 113.996094 77.457031 114.710938 76.265625 C 115.425781 75.074219 116.167969 73.902344 116.9375 72.746094 C 117.710938 71.589844 118.511719 70.453125 119.335938 69.335938 C 120.164062 68.222656 121.019531 67.125 121.902344 66.050781 C 122.78125 64.976562 123.6875 63.925781 124.621094 62.894531 C 125.554688 61.867188 126.511719 60.859375 127.492188 59.875 C 128.476562 58.894531 129.480469 57.933594 130.511719 57.003906 C 131.539062 56.070312 132.589844 55.160156 133.664062 54.28125 C 134.738281 53.398438 135.832031 52.542969 136.949219 51.714844 C 138.066406 50.886719 139.199219 50.085938 140.355469 49.316406 C 141.511719 48.542969 142.683594 47.800781 143.875 47.085938 C 145.066406 46.371094 146.273438 45.6875 147.5 45.03125 C 148.722656 44.375 149.964844 43.75 151.21875 43.15625 C 152.476562 42.5625 153.746094 42 155.027344 41.46875 C 156.3125 40.933594 157.605469 40.433594 158.914062 39.96875 C 160.222656 39.5 161.542969 39.0625 162.871094 38.660156 C 164.199219 38.257812 165.539062 37.886719 166.886719 37.546875 C 168.234375 37.210938 169.585938 36.90625 170.949219 36.632812 C 172.3125 36.363281 173.679688 36.125 175.054688 35.921875 C 176.429688 35.71875 177.804688 35.546875 179.1875 35.410156 C 180.570312 35.277344 181.957031 35.171875 183.34375 35.105469 C 184.730469 35.035156 186.117188 35.003906 187.507812 35.003906 C 188.894531 35.003906 190.285156 35.035156 191.671875 35.105469 C 193.058594 35.171875 194.445312 35.277344 195.824219 35.410156 C 197.207031 35.546875 198.585938 35.71875 199.960938 35.921875 C 201.335938 36.125 202.703125 36.363281 204.066406 36.632812 C 205.425781 36.90625 206.78125 37.210938 208.128906 37.546875 C 209.476562 37.886719 210.816406 38.257812 212.144531 38.660156 C 213.472656 39.0625 214.792969 39.5 216.101562 39.96875 C 217.40625 40.433594 218.703125 40.933594 219.984375 41.46875 C 221.269531 42 222.539062 42.5625 223.792969 43.15625 C 225.050781 43.75 226.289062 44.375 227.515625 45.03125 C 228.742188 45.6875 229.949219 46.371094 231.140625 47.085938 C 232.332031 47.800781 233.503906 48.542969 234.660156 49.316406 C 235.8125 50.085938 236.949219 50.886719 238.066406 51.714844 C 239.179688 52.542969 240.277344 53.398438 241.347656 54.28125 C 242.421875 55.160156 243.472656 56.070312 244.503906 57.003906 C 245.53125 57.933594 246.539062 58.894531 247.519531 59.875 C 248.503906 60.859375 249.460938 61.867188 250.394531 62.894531 C 251.324219 63.925781 252.234375 64.976562 253.113281 66.050781 C 253.996094 67.125 254.847656 68.222656 255.675781 69.335938 C 256.503906 70.453125 257.304688 71.589844 258.074219 72.746094 C 258.847656 73.902344 259.589844 75.074219 260.304688 76.265625 C 261.019531 77.457031 261.703125 78.667969 262.355469 79.894531 C 263.011719 81.117188 263.636719 82.359375 264.230469 83.617188 C 264.824219 84.871094 265.386719 86.144531 265.917969 87.425781 C 266.449219 88.710938 266.949219 90.007812 267.417969 91.316406 C 267.886719 92.625 268.320312 93.945312 268.722656 95.273438 C 269.128906 96.605469 269.496094 97.941406 269.835938 99.292969 C 270.171875 100.640625 270.476562 101.996094 270.75 103.359375 C 271.019531 104.722656 271.257812 106.089844 271.460938 107.464844 C 271.664062 108.839844 271.835938 110.21875 271.96875 111.601562 C 272.105469 112.984375 272.207031 114.371094 272.277344 115.757812 C 272.34375 117.148438 272.378906 118.535156 272.378906 119.925781 Z M 272.378906 119.925781 " fill-opacity="1" fill-rule="nonzero"/><path fill="#ff0000" d="M 143.394531 107.414062 C 143.394531 110.136719 142.242188 112.335938 139.933594 114.039062 C 137.625 115.746094 134.488281 116.597656 130.53125 116.597656 C 128.25 116.597656 126.246094 116.40625 124.539062 115.992188 C 122.835938 115.582031 121.242188 115.085938 119.757812 114.453125 L 119.757812 107.824219 L 120.527344 107.824219 C 122.011719 109.007812 123.632812 109.914062 125.476562 110.546875 C 127.289062 111.179688 129.046875 111.484375 130.722656 111.484375 C 131.164062 111.484375 131.714844 111.457031 132.429688 111.371094 C 133.144531 111.289062 133.71875 111.179688 134.160156 111.015625 C 134.710938 110.796875 135.148438 110.519531 135.507812 110.191406 C 135.863281 109.859375 136.027344 109.367188 136.027344 108.707031 C 136.027344 108.101562 135.78125 107.578125 135.257812 107.136719 C 134.738281 106.699219 133.996094 106.367188 133.003906 106.121094 C 131.960938 105.871094 130.863281 105.652344 129.707031 105.433594 C 128.554688 105.210938 127.453125 104.9375 126.464844 104.609375 C 124.128906 103.863281 122.480469 102.820312 121.433594 101.527344 C 120.417969 100.234375 119.894531 98.640625 119.894531 96.714844 C 119.894531 94.128906 121.050781 92.039062 123.359375 90.417969 C 125.667969 88.792969 128.636719 87.96875 132.265625 87.96875 C 134.078125 87.96875 135.863281 88.132812 137.652344 88.492188 C 139.4375 88.851562 140.949219 89.289062 142.269531 89.8125 L 142.269531 96.164062 L 141.5 96.164062 C 140.398438 95.285156 139.023438 94.542969 137.402344 93.9375 C 135.78125 93.332031 134.132812 93.03125 132.457031 93.03125 C 131.851562 93.03125 131.273438 93.058594 130.695312 93.140625 C 130.121094 93.222656 129.542969 93.359375 128.992188 93.605469 C 128.5 93.800781 128.085938 94.074219 127.757812 94.460938 C 127.398438 94.84375 127.234375 95.257812 127.234375 95.753906 C 127.234375 96.496094 127.507812 97.046875 128.058594 97.429688 C 128.609375 97.816406 129.652344 98.171875 131.21875 98.503906 C 132.234375 98.722656 133.199219 98.914062 134.132812 99.109375 C 135.066406 99.300781 136.085938 99.574219 137.15625 99.933594 C 139.273438 100.621094 140.839844 101.582031 141.828125 102.765625 C 142.898438 103.949219 143.394531 105.488281 143.394531 107.414062 Z M 143.394531 107.414062 " fill-opacity="1" fill-rule="nonzero"/><path fill="#ff0000" d="M 169.890625 93.800781 L 161.257812 93.800781 L 161.257812 116.074219 L 154.140625 116.074219 L 154.140625 93.800781 L 145.511719 93.800781 L 145.511719 88.464844 L 169.890625 88.464844 Z M 169.890625 93.800781 " fill-opacity="1" fill-rule="nonzero"/><path fill="#ff0000" d="M 199.683594 116.074219 L 192.34375 116.074219 L 190.421875 110.492188 L 180.195312 110.492188 L 178.273438 116.074219 L 171.097656 116.074219 L 181.296875 88.4375 L 189.484375 88.4375 Z M 188.6875 105.433594 L 185.28125 95.53125 L 181.871094 105.433594 Z M 188.6875 105.433594 " fill-opacity="1" fill-rule="nonzero"/><path fill="#ff0000" d="M 230.246094 116.074219 L 221.53125 116.074219 L 214.058594 105.957031 L 210.757812 105.957031 L 210.757812 116.074219 L 203.667969 116.074219 L 203.667969 88.464844 L 215.625 88.464844 C 217.246094 88.464844 218.648438 88.546875 219.828125 88.738281 C 221.011719 88.933594 222.109375 89.316406 223.128906 89.949219 C 224.171875 90.582031 224.996094 91.378906 225.601562 92.34375 C 226.207031 93.332031 226.507812 94.570312 226.507812 96.054688 C 226.507812 98.089844 226.039062 99.765625 225.078125 101.058594 C 224.144531 102.351562 222.769531 103.425781 221.039062 104.277344 Z M 219.140625 96.90625 C 219.140625 96.21875 219.003906 95.613281 218.703125 95.121094 C 218.425781 94.625 217.933594 94.238281 217.246094 93.9375 C 216.75 93.746094 216.199219 93.605469 215.570312 93.578125 C 214.9375 93.523438 214.167969 93.523438 213.316406 93.523438 L 210.730469 93.523438 L 210.730469 100.976562 L 212.929688 100.976562 C 214.058594 100.976562 215.019531 100.921875 215.789062 100.8125 C 216.558594 100.703125 217.191406 100.453125 217.710938 100.042969 C 218.207031 99.65625 218.566406 99.246094 218.785156 98.777344 C 219.03125 98.308594 219.140625 97.703125 219.140625 96.90625 Z M 219.140625 96.90625 " fill-opacity="1" fill-rule="nonzero"/><path fill="#ff0000" d="M 254.980469 93.800781 L 246.351562 93.800781 L 246.351562 116.074219 L 239.234375 116.074219 L 239.234375 93.800781 L 230.601562 93.800781 L 230.601562 88.464844 L 254.980469 88.464844 Z M 254.980469 93.800781 " fill-opacity="1" fill-rule="nonzero"/><path fill="#ff0000" d="M 166.042969 154.410156 L 158.921875 154.410156 L 158.921875 142.230469 L 148.398438 142.230469 L 148.398438 154.410156 L 141.277344 154.410156 L 141.277344 126.773438 L 148.398438 126.773438 L 148.398438 136.894531 L 158.921875 136.894531 L 158.921875 126.773438 L 166.042969 126.773438 Z M 166.042969 154.410156 " fill-opacity="1" fill-rule="nonzero"/><path fill="#ff0000" d="M 193.058594 154.410156 L 173.078125 154.410156 L 173.078125 126.773438 L 193.058594 126.773438 L 193.058594 132.109375 L 180.167969 132.109375 L 180.167969 136.867188 L 192.125 136.867188 L 192.125 142.203125 L 180.167969 142.203125 L 180.167969 149.023438 L 193.058594 149.023438 Z M 193.058594 154.410156 " fill-opacity="1" fill-rule="nonzero"/><path fill="#ff0000" d="M 225.628906 154.410156 L 216.914062 154.410156 L 209.414062 144.292969 L 206.113281 144.292969 L 206.113281 154.410156 L 199.023438 154.410156 L 199.023438 126.773438 L 210.980469 126.773438 C 212.601562 126.773438 214.003906 126.855469 215.183594 127.046875 C 216.367188 127.242188 217.464844 127.625 218.480469 128.257812 C 219.527344 128.890625 220.351562 129.6875 220.957031 130.652344 C 221.558594 131.640625 221.863281 132.878906 221.863281 134.363281 C 221.863281 136.398438 221.394531 138.078125 220.433594 139.367188 C 219.5 140.660156 218.125 141.734375 216.394531 142.585938 Z M 214.523438 135.242188 C 214.523438 134.554688 214.386719 133.949219 214.085938 133.457031 C 213.808594 132.960938 213.316406 132.574219 212.628906 132.273438 C 212.132812 132.082031 211.582031 131.945312 210.953125 131.917969 C 210.320312 131.859375 209.550781 131.859375 208.699219 131.859375 L 206.113281 131.859375 L 206.113281 139.3125 L 208.3125 139.3125 C 209.441406 139.3125 210.402344 139.257812 211.171875 139.148438 C 211.941406 139.039062 212.574219 138.792969 213.09375 138.378906 C 213.589844 137.992188 213.945312 137.582031 214.167969 137.113281 C 214.414062 136.644531 214.523438 136.042969 214.523438 135.242188 Z M 214.523438 135.242188 " fill-opacity="1" fill-rule="nonzero"/><path fill="#ff0000" d="M 248.714844 154.410156 L 228.734375 154.410156 L 228.734375 126.773438 L 248.714844 126.773438 L 248.714844 132.109375 L 235.824219 132.109375 L 235.824219 136.867188 L 247.78125 136.867188 L 247.78125 142.203125 L 235.824219 142.203125 L 235.824219 149.023438 L 248.714844 149.023438 Z M 248.714844 154.410156 " fill-opacity="1" fill-rule="nonzero"/><g clip-path="url(#8947ce290a)"><g clip-path="url(#b35ebd2db9)"><path fill="#ffffff" d="M 103.566406 37.5 L 271.433594 37.5 L 271.433594 205.367188 L 103.566406 205.367188 Z M 103.566406 37.5 " fill-opacity="1" fill-rule="nonzero"/></g></g><path fill="#ff0000" d="M 208.324219 129.425781 C 206.753906 129.425781 205.257812 129.898438 203.984375 130.765625 C 202.667969 129.792969 201.097656 129.246094 199.429688 129.246094 C 197.367188 129.246094 195.429688 130.046875 193.972656 131.507812 C 193.296875 132.183594 193.296875 133.28125 193.972656 133.957031 C 194.652344 134.636719 195.75 134.636719 196.425781 133.957031 C 198.03125 132.355469 200.828125 132.351562 202.4375 133.957031 C 203.238281 134.761719 203.679688 135.828125 203.679688 136.964844 C 203.679688 138.097656 203.238281 139.164062 202.4375 139.96875 C 201.757812 140.644531 201.757812 141.742188 202.4375 142.421875 C 202.773438 142.761719 203.21875 142.929688 203.660156 142.929688 C 204.105469 142.929688 204.550781 142.761719 204.886719 142.421875 C 206.347656 140.960938 207.148438 139.023438 207.148438 136.964844 C 207.148438 135.71875 206.824219 134.535156 206.269531 133.457031 C 207.878906 132.601562 210.007812 132.816406 211.328125 134.136719 C 211.667969 134.476562 212.109375 134.644531 212.554688 134.644531 C 213 134.644531 213.441406 134.476562 213.78125 134.136719 C 214.457031 133.460938 214.457031 132.363281 213.78125 131.683594 C 212.324219 130.226562 210.386719 129.425781 208.324219 129.425781 Z M 208.324219 129.425781 " fill-opacity="1" fill-rule="nonzero"/><path fill="#ff0000" d="M 222.179688 124.429688 C 221.753906 123.984375 221.292969 123.570312 220.808594 123.191406 C 222.960938 121.652344 224.351562 119.132812 224.351562 116.363281 C 224.351562 112.574219 221.820312 109.351562 218.359375 108.304688 C 219.15625 105.578125 219.019531 102.640625 217.929688 99.835938 C 216.65625 96.5625 213.925781 93.914062 210.625 92.757812 C 207.921875 91.808594 205.15625 91.71875 202.609375 92.445312 C 202.722656 91.089844 202.507812 89.691406 201.949219 88.332031 C 201.085938 86.238281 199.371094 84.601562 197.238281 83.847656 C 194.515625 82.878906 191.648438 83.246094 189.371094 84.855469 C 188.660156 85.355469 188.050781 85.96875 187.539062 86.644531 C 187.023438 85.96875 186.414062 85.355469 185.703125 84.855469 C 183.429688 83.246094 180.5625 82.878906 177.839844 83.847656 C 175.707031 84.601562 173.988281 86.238281 173.125 88.332031 C 172.566406 89.691406 172.351562 91.089844 172.46875 92.445312 C 169.921875 91.71875 167.15625 91.808594 164.449219 92.757812 C 161.148438 93.914062 158.417969 96.5625 157.144531 99.835938 C 156.054688 102.640625 155.917969 105.578125 156.714844 108.304688 C 153.257812 109.351562 150.726562 112.574219 150.726562 116.363281 C 150.726562 119.132812 152.117188 121.652344 154.269531 123.191406 C 153.78125 123.570312 153.324219 123.984375 152.898438 124.429688 C 150.613281 126.8125 149.355469 129.945312 149.355469 133.246094 C 149.355469 138.785156 152.886719 143.585938 157.988281 145.320312 C 157.507812 147.445312 157.738281 149.648438 158.683594 151.789062 C 159.667969 154.027344 161.546875 155.851562 163.835938 156.796875 C 166.539062 157.910156 169.347656 157.894531 171.882812 156.777344 C 173.820312 158.632812 176.328125 159.621094 178.957031 159.621094 C 180.285156 159.621094 181.644531 159.371094 182.976562 158.851562 C 184.859375 158.117188 186.433594 156.789062 187.539062 155.117188 C 188.640625 156.789062 190.214844 158.117188 192.101562 158.851562 C 193.433594 159.371094 194.792969 159.621094 196.117188 159.621094 C 198.75 159.621094 201.257812 158.632812 203.195312 156.777344 C 205.730469 157.894531 208.539062 157.910156 211.238281 156.796875 C 213.527344 155.851562 215.40625 154.027344 216.390625 151.789062 C 217.335938 149.648438 217.566406 147.445312 217.085938 145.320312 C 222.191406 143.585938 225.722656 138.785156 225.722656 133.246094 C 225.722656 129.945312 224.460938 126.8125 222.179688 124.429688 Z M 181.714844 155.621094 C 178.082031 157.035156 175.152344 155.472656 173.617188 153.542969 C 173.277344 153.113281 172.773438 152.886719 172.257812 152.886719 C 171.945312 152.886719 171.632812 152.96875 171.351562 153.144531 C 170.019531 153.964844 167.871094 154.707031 165.160156 153.589844 C 163.6875 152.984375 162.484375 151.816406 161.859375 150.390625 C 160.8125 148.019531 161.25 146.046875 161.796875 144.808594 C 162.015625 144.320312 161.992188 143.757812 161.742188 143.289062 C 161.492188 142.816406 161.035156 142.488281 160.511719 142.398438 C 156.054688 141.617188 152.824219 137.769531 152.824219 133.246094 C 152.824219 130.84375 153.738281 128.5625 155.402344 126.828125 C 156.347656 125.839844 157.519531 125.058594 158.789062 124.570312 C 159.527344 124.289062 159.976562 123.542969 159.890625 122.761719 C 159.804688 121.976562 159.199219 121.351562 158.421875 121.234375 C 155.972656 120.875 154.195312 118.824219 154.195312 116.363281 C 154.195312 113.648438 156.40625 111.429688 159.125 111.417969 C 159.722656 111.414062 160.28125 111.101562 160.59375 110.589844 C 160.90625 110.078125 160.933594 109.441406 160.664062 108.902344 C 159.8125 107.203125 159.066406 104.46875 160.378906 101.09375 C 161.289062 98.75 163.242188 96.855469 165.597656 96.027344 C 168.832031 94.894531 172.167969 95.414062 174.738281 97.449219 C 175.441406 98.003906 176.449219 97.933594 177.066406 97.289062 C 177.6875 96.644531 177.710938 95.632812 177.128906 94.957031 C 175.847656 93.472656 175.554688 91.539062 176.332031 89.652344 C 176.8125 88.484375 177.808594 87.535156 179 87.113281 C 180.644531 86.527344 182.359375 86.738281 183.703125 87.6875 C 185.019531 88.617188 185.804688 90.128906 185.804688 91.738281 L 185.804688 138.546875 C 184.273438 137.34375 182.371094 136.597656 180.28125 136.597656 C 175.324219 136.597656 171.292969 140.628906 171.292969 145.585938 C 171.292969 146.542969 172.066406 147.320312 173.027344 147.320312 C 173.984375 147.320312 174.761719 146.542969 174.761719 145.585938 C 174.761719 142.542969 177.238281 140.066406 180.28125 140.066406 C 183.328125 140.066406 185.804688 142.542969 185.804688 145.585938 L 185.804688 149.304688 C 185.804688 152.128906 184.160156 154.667969 181.714844 155.621094 Z M 214.566406 142.398438 C 214.039062 142.488281 213.585938 142.816406 213.332031 143.289062 C 213.082031 143.757812 213.0625 144.320312 213.277344 144.808594 C 213.828125 146.046875 214.261719 148.019531 213.21875 150.390625 C 212.589844 151.816406 211.386719 152.984375 209.917969 153.589844 C 207.207031 154.707031 205.054688 153.964844 203.726562 153.144531 C 202.976562 152.683594 202.003906 152.855469 201.457031 153.542969 C 199.925781 155.472656 196.996094 157.035156 193.359375 155.621094 C 190.914062 154.667969 189.273438 152.128906 189.273438 149.304688 L 189.273438 114.640625 C 190.800781 115.84375 192.703125 116.589844 194.792969 116.589844 C 199.75 116.589844 203.785156 112.558594 203.785156 107.601562 C 203.785156 106.644531 203.007812 105.867188 202.050781 105.867188 C 201.089844 105.867188 200.316406 106.644531 200.316406 107.601562 C 200.316406 110.644531 197.839844 113.121094 194.792969 113.121094 C 191.75 113.121094 189.273438 110.644531 189.273438 107.601562 L 189.273438 91.738281 C 189.273438 90.128906 190.058594 88.617188 191.371094 87.6875 C 192.214844 87.09375 193.203125 86.789062 194.226562 86.789062 C 194.835938 86.789062 195.460938 86.898438 196.078125 87.113281 C 197.265625 87.535156 198.261719 88.484375 198.742188 89.652344 C 199.519531 91.539062 199.230469 93.472656 197.949219 94.957031 C 197.363281 95.632812 197.386719 96.644531 198.007812 97.289062 C 198.625 97.9375 199.636719 98.003906 200.335938 97.449219 C 202.910156 95.410156 206.238281 94.894531 209.476562 96.027344 C 211.835938 96.855469 213.785156 98.75 214.695312 101.09375 C 216.007812 104.46875 215.265625 107.203125 214.410156 108.902344 C 214.140625 109.441406 214.167969 110.078125 214.480469 110.589844 C 214.792969 111.101562 215.351562 111.414062 215.953125 111.417969 C 218.671875 111.429688 220.882812 113.648438 220.882812 116.363281 C 220.882812 118.824219 219.105469 120.875 216.652344 121.234375 C 215.875 121.351562 215.269531 121.976562 215.183594 122.761719 C 215.097656 123.542969 215.550781 124.289062 216.285156 124.570312 C 217.554688 125.058594 218.726562 125.839844 219.675781 126.828125 C 221.335938 128.5625 222.253906 130.84375 222.253906 133.246094 C 222.253906 137.769531 219.019531 141.617188 214.566406 142.398438 Z M 214.566406 142.398438 " fill-opacity="1" fill-rule="nonzero"/><path fill="#ff0000" d="M 174.628906 121.558594 C 174.628906 122.515625 175.402344 123.292969 176.363281 123.292969 C 177.320312 123.292969 178.097656 122.515625 178.097656 121.558594 C 178.097656 118.839844 176.679688 116.457031 174.550781 115.082031 C 174.558594 115.074219 174.570312 115.070312 174.578125 115.058594 C 177.585938 112.050781 177.585938 107.152344 174.578125 104.144531 C 173.902344 103.464844 172.804688 103.464844 172.125 104.144531 C 171.449219 104.820312 171.449219 105.917969 172.125 106.597656 C 173.78125 108.253906 173.78125 110.949219 172.125 112.605469 C 170.46875 114.265625 167.769531 114.265625 166.113281 112.605469 C 165.4375 111.929688 164.339844 111.929688 163.664062 112.605469 C 162.984375 113.285156 162.984375 114.382812 163.664062 115.058594 C 165.167969 116.566406 167.144531 117.316406 169.121094 117.316406 C 169.417969 117.316406 169.710938 117.265625 170.007812 117.230469 C 170.128906 117.257812 170.246094 117.304688 170.375 117.304688 C 172.71875 117.304688 174.628906 119.214844 174.628906 121.558594 Z M 174.628906 121.558594 " fill-opacity="1" fill-rule="nonzero"/><g clip-path="url(#ebec43d157)"><path fill="#ff0000" d="M 255.179688 123.207031 C 256.136719 123.207031 256.914062 122.429688 256.914062 121.472656 C 256.914062 120.515625 256.136719 119.738281 255.179688 119.738281 L 239.570312 119.738281 L 239.570312 95.457031 L 248.605469 95.457031 C 249.277344 96.988281 250.800781 98.058594 252.578125 98.058594 C 254.972656 98.058594 256.914062 96.117188 256.914062 93.722656 C 256.914062 91.328125 254.972656 89.386719 252.578125 89.386719 C 250.800781 89.386719 249.277344 90.457031 248.605469 91.988281 L 239.570312 91.988281 L 239.570312 78.113281 C 239.570312 73.332031 235.679688 69.441406 230.898438 69.441406 L 217.03125 69.441406 L 217.03125 53.832031 C 217.03125 52.875 216.253906 52.097656 215.296875 52.097656 C 214.335938 52.097656 213.5625 52.875 213.5625 53.832031 L 213.5625 69.441406 L 189.28125 69.441406 L 189.28125 53.832031 C 189.28125 52.875 188.503906 52.097656 187.546875 52.097656 C 186.585938 52.097656 185.8125 52.875 185.8125 53.832031 L 185.8125 69.441406 L 161.53125 69.441406 L 161.53125 60.402344 C 163.058594 59.734375 164.132812 58.210938 164.132812 56.433594 C 164.132812 54.039062 162.191406 52.097656 159.796875 52.097656 C 157.402344 52.097656 155.460938 54.039062 155.460938 56.433594 C 155.460938 58.210938 156.53125 59.734375 158.0625 60.402344 L 158.0625 69.441406 L 144.179688 69.441406 C 139.398438 69.441406 135.507812 73.332031 135.507812 78.113281 L 135.507812 91.988281 L 119.898438 91.988281 C 118.9375 91.988281 118.164062 92.765625 118.164062 93.722656 C 118.164062 94.679688 118.9375 95.457031 119.898438 95.457031 L 135.507812 95.457031 L 135.507812 119.738281 L 119.898438 119.738281 C 118.9375 119.738281 118.164062 120.515625 118.164062 121.472656 C 118.164062 122.429688 118.9375 123.207031 119.898438 123.207031 L 135.507812 123.207031 L 135.507812 147.488281 L 126.46875 147.488281 C 125.800781 145.957031 124.277344 144.886719 122.5 144.886719 C 120.105469 144.886719 118.164062 146.828125 118.164062 149.222656 C 118.164062 151.617188 120.105469 153.558594 122.5 153.558594 C 124.277344 153.558594 125.800781 152.488281 126.46875 150.957031 L 135.507812 150.957031 L 135.507812 164.832031 C 135.507812 169.613281 139.398438 173.503906 144.179688 173.503906 L 158.054688 173.503906 L 158.054688 182.558594 C 156.527344 183.230469 155.460938 184.75 155.460938 186.527344 C 155.460938 188.921875 157.402344 190.863281 159.796875 190.863281 C 162.191406 190.863281 164.132812 188.921875 164.132812 186.527344 C 164.132812 184.746094 163.054688 183.21875 161.523438 182.550781 L 161.523438 173.503906 L 185.804688 173.503906 L 185.804688 189.113281 C 185.804688 190.070312 186.578125 190.847656 187.539062 190.847656 C 188.496094 190.847656 189.273438 190.070312 189.273438 189.113281 L 189.273438 173.503906 L 213.554688 173.503906 L 213.554688 189.113281 C 213.554688 190.070312 214.328125 190.847656 215.289062 190.847656 C 216.246094 190.847656 217.023438 190.070312 217.023438 189.113281 L 217.023438 173.503906 L 230.898438 173.503906 C 235.679688 173.503906 239.570312 169.613281 239.570312 164.832031 L 239.570312 150.957031 L 255.179688 150.957031 C 256.136719 150.957031 256.914062 150.179688 256.914062 149.222656 C 256.914062 148.265625 256.136719 147.488281 255.179688 147.488281 L 239.570312 147.488281 L 239.570312 123.207031 Z M 236.101562 164.832031 C 236.101562 167.699219 233.765625 170.035156 230.898438 170.035156 L 144.179688 170.035156 C 141.308594 170.035156 138.976562 167.699219 138.976562 164.832031 L 138.976562 78.113281 C 138.976562 75.242188 141.308594 72.910156 144.179688 72.910156 L 230.898438 72.910156 C 233.765625 72.910156 236.101562 75.242188 236.101562 78.113281 Z M 236.101562 164.832031 " fill-opacity="1" fill-rule="nonzero"/></g></svg>