<svg xmlns="http://www.w3.org/2000/svg" xmlns:xlink="http://www.w3.org/1999/xlink" width="500" zoomAndPan="magnify" viewBox="0 0 375 374.999991" height="500" preserveAspectRatio="xMidYMid meet" version="1.0"><defs><g/><clipPath id="76712820c1"><path d="M 141 323 L 235 323 L 235 362.910156 L 141 362.910156 Z M 141 323 " clip-rule="nonzero"/></clipPath><clipPath id="b83d0378d9"><path d="M 84.339844 12 L 290.589844 12 L 290.589844 339 L 84.339844 339 Z M 84.339844 12 " clip-rule="nonzero"/></clipPath></defs><g clip-path="url(#76712820c1)"><path fill="#503205" d="M 234.09375 342.804688 C 234.09375 353.679688 213.453125 362.496094 187.988281 362.496094 C 162.523438 362.496094 141.882812 353.679688 141.882812 342.804688 C 141.882812 331.9375 162.523438 323.117188 187.988281 323.117188 C 213.453125 323.117188 234.09375 331.9375 234.09375 342.804688 " fill-opacity="1" fill-rule="nonzero"/></g><path fill="#ff758a" d="M 233.15625 338.039062 C 233.15625 348.914062 212.722656 357.730469 187.519531 357.730469 C 162.316406 357.730469 141.882812 348.914062 141.882812 338.039062 C 141.882812 327.167969 162.316406 318.351562 187.519531 318.351562 C 212.722656 318.351562 233.15625 327.167969 233.15625 338.039062 " fill-opacity="1" fill-rule="nonzero"/><g clip-path="url(#b83d0378d9)"><path fill="#f53855" d="M 189.277344 12.324219 C 188.667969 12.324219 188.070312 12.359375 187.46875 12.375 C 186.859375 12.359375 186.261719 12.324219 185.652344 12.324219 C 129.675781 12.324219 84.292969 59.625 84.292969 117.96875 C 84.292969 127.925781 88.15625 150.949219 93.957031 160.5 L 187.46875 338.039062 L 280.972656 160.5 C 286.773438 150.949219 290.636719 127.925781 290.636719 117.96875 C 290.636719 59.625 245.261719 12.324219 189.277344 12.324219 " fill-opacity="1" fill-rule="nonzero"/></g><path fill="#ffffff" d="M 243.445312 106.199219 C 243.445312 137.109375 218.378906 162.164062 187.46875 162.164062 C 156.550781 162.164062 131.484375 137.109375 131.484375 106.199219 C 131.484375 75.289062 156.550781 50.234375 187.46875 50.234375 C 218.378906 50.234375 243.445312 75.289062 243.445312 106.199219 " fill-opacity="1" fill-rule="nonzero"/><g fill="#000000" fill-opacity="1"><g transform="translate(148.982251, 128.516926)"><g><path d="M 15.988281 0.535156 L 20.683594 0.652344 L 21.875 0.535156 L 23.0625 0.238281 L 24.25 0.0585938 L 25.4375 -0.417969 L 26.507812 -0.535156 L 27.636719 -1.070312 L 31.679688 -3.507812 L 33.402344 -5.289062 L 34 -6.121094 L 34.652344 -7.429688 L 35.007812 -8.5 L 35.367188 -9.511719 L 35.722656 -12.480469 L 35.601562 -14.382812 L 34.710938 -17.832031 L 34.058594 -18.78125 L 32.511719 -20.566406 L 31.441406 -21.515625 L 30.492188 -21.992188 L 29.421875 -22.644531 L 24.785156 -24.074219 L 23.597656 -24.25 L 22.40625 -24.308594 L 21.160156 -24.546875 L 19.4375 -24.546875 L 16.285156 -25.203125 L 14.085938 -26.273438 L 13.195312 -27.105469 L 12.957031 -28.886719 L 13.253906 -30.492188 L 13.96875 -31.265625 L 14.859375 -31.917969 L 15.808594 -32.453125 L 16.878906 -32.691406 L 18.78125 -32.75 L 20.683594 -32.511719 L 21.753906 -32.214844 L 22.824219 -31.503906 L 23.835938 -30.671875 L 24.726562 -29.480469 L 26.035156 -28.707031 L 28.828125 -28.945312 L 30.433594 -28.828125 L 31.621094 -28.828125 L 32.691406 -28.707031 L 33.820312 -29.539062 L 34.296875 -30.550781 L 34.058594 -31.679688 L 33.9375 -32.808594 L 32.273438 -35.902344 L 30.96875 -37.683594 L 27.042969 -40.417969 L 23.714844 -41.546875 L 21.398438 -42.023438 L 16.820312 -42.140625 L 15.511719 -41.785156 L 14.324219 -41.726562 L 13.253906 -41.546875 L 10.996094 -40.832031 L 8.976562 -39.644531 L 6.121094 -37.683594 L 4.042969 -34.890625 L 2.972656 -31.621094 L 2.792969 -28.707031 L 2.851562 -26.867188 L 3.269531 -24.488281 L 4.21875 -22.40625 L 6.417969 -19.675781 L 10.460938 -17.476562 L 12.601562 -16.761719 L 21.933594 -15.691406 L 24.074219 -14.679688 L 24.84375 -13.96875 L 25.203125 -12.480469 L 24.726562 -10.996094 L 23.953125 -10.105469 L 21.933594 -9.210938 L 20.089844 -9.09375 L 19.019531 -8.914062 L 15.988281 -9.210938 L 14.976562 -9.746094 L 13.96875 -10.402344 L 12.007812 -12.542969 L 10.816406 -13.015625 L 9.746094 -12.898438 L 8.617188 -13.078125 L 4.042969 -12.839844 L 2.972656 -12.363281 L 2.496094 -11.113281 L 2.675781 -9.925781 L 2.914062 -8.738281 L 3.269531 -7.667969 L 4.398438 -5.46875 L 5.230469 -4.695312 L 6.003906 -3.804688 L 8.082031 -2.496094 L 8.914062 -1.605469 L 10.046875 -1.070312 L 11.234375 -0.714844 L 13.550781 0.117188 Z M 15.988281 0.535156 "/></g></g></g><g fill="#000000" fill-opacity="1"><g transform="translate(186.901502, 128.516926)"><g><path d="M 7.964844 0.179688 L 10.878906 0.0585938 L 11.945312 0.117188 L 13.3125 0 L 14.5625 -0.476562 L 15.097656 -1.722656 L 15.039062 -2.914062 L 15.097656 -4.21875 L 14.976562 -6.417969 L 15.097656 -7.546875 L 15.039062 -8.914062 L 15.574219 -9.984375 L 16.941406 -10.640625 L 18.246094 -10.757812 L 19.496094 -10.519531 L 25.617188 -10.996094 L 31.265625 -13.253906 L 32.15625 -13.96875 L 32.988281 -14.917969 L 33.761719 -15.691406 L 34.535156 -16.582031 L 35.78125 -18.484375 L 36.792969 -20.804688 L 36.96875 -22.109375 L 37.328125 -23.0625 L 37.445312 -27.9375 L 37.207031 -28.945312 L 37.03125 -30.253906 L 36.316406 -32.453125 L 35.1875 -34.472656 L 33.761719 -36.433594 L 31.085938 -38.753906 L 29.125 -40.0625 L 26.746094 -40.773438 L 25.738281 -41.191406 L 24.546875 -41.191406 L 23.359375 -41.605469 L 21.574219 -41.664062 L 19.675781 -41.605469 L 18.367188 -41.429688 L 14.742188 -41.488281 L 13.550781 -41.664062 L 9.867188 -41.429688 L 8.558594 -41.488281 L 7.488281 -41.664062 L 6.242188 -41.429688 L 4.992188 -40.773438 L 4.457031 -39.824219 L 4.515625 -32.632812 L 4.28125 -30.253906 L 4.398438 -29.125 L 4.339844 -13.730469 L 4.457031 -12.601562 L 4.398438 -1.605469 L 5.050781 -0.476562 L 6.894531 0.117188 Z M 16.878906 -20.148438 L 15.691406 -20.863281 L 15.15625 -21.875 L 14.976562 -26.6875 L 15.097656 -27.9375 L 15.097656 -30.371094 L 15.691406 -31.503906 L 16.941406 -32.097656 L 23.121094 -31.917969 L 24.308594 -31.382812 L 25.261719 -30.730469 L 26.035156 -29.957031 L 26.628906 -28.769531 L 26.804688 -27.699219 L 26.925781 -26.035156 L 26.804688 -24.429688 L 26.390625 -23.359375 L 25.855469 -22.40625 L 25.082031 -21.457031 L 24.132812 -20.742188 L 23.179688 -20.445312 L 21.339844 -20.207031 L 18.308594 -20.269531 Z M 16.878906 -20.148438 "/></g></g></g></svg>