<svg xmlns="http://www.w3.org/2000/svg" xmlns:xlink="http://www.w3.org/1999/xlink" width="500" zoomAndPan="magnify" viewBox="0 0 375 374.999991" height="500" preserveAspectRatio="xMidYMid meet" version="1.0"><defs><g/><clipPath id="4f530df10a"><path d="M 82.132812 15.121094 L 292.882812 15.121094 L 292.882812 360.121094 L 82.132812 360.121094 Z M 82.132812 15.121094 " clip-rule="nonzero"/></clipPath><clipPath id="2a51f3ae27"><path d="M 103.566406 37.5 L 271.433594 37.5 L 271.433594 205.367188 L 103.566406 205.367188 Z M 103.566406 37.5 " clip-rule="nonzero"/></clipPath><clipPath id="ec8f88a8bf"><path d="M 187.5 37.5 C 141.144531 37.5 103.566406 75.078125 103.566406 121.433594 C 103.566406 167.789062 141.144531 205.367188 187.5 205.367188 C 233.855469 205.367188 271.433594 167.789062 271.433594 121.433594 C 271.433594 75.078125 233.855469 37.5 187.5 37.5 Z M 187.5 37.5 " clip-rule="nonzero"/></clipPath></defs><g clip-path="url(#4f530df10a)"><path fill="#ff0000" d="M 292.882812 120.558594 C 292.882812 178.804688 187.507812 360.117188 187.507812 360.117188 C 187.507812 360.117188 82.132812 178.804688 82.132812 120.558594 C 82.132812 62.3125 129.324219 15.121094 187.507812 15.121094 C 245.691406 15.121094 292.882812 62.339844 292.882812 120.558594 Z M 292.882812 120.558594 " fill-opacity="1" fill-rule="nonzero"/></g><path fill="#ffffff" d="M 272.378906 119.925781 C 272.378906 121.316406 272.34375 122.703125 272.277344 124.09375 C 272.207031 125.480469 272.105469 126.867188 271.96875 128.25 C 271.835938 129.632812 271.664062 131.011719 271.460938 132.386719 C 271.257812 133.761719 271.019531 135.128906 270.75 136.492188 C 270.476562 137.855469 270.171875 139.210938 269.835938 140.558594 C 269.496094 141.910156 269.128906 143.246094 268.722656 144.578125 C 268.320312 145.90625 267.886719 147.226562 267.417969 148.535156 C 266.949219 149.84375 266.449219 151.140625 265.917969 152.425781 C 265.386719 153.707031 264.824219 154.976562 264.230469 156.234375 C 263.636719 157.492188 263.011719 158.730469 262.355469 159.957031 C 261.703125 161.183594 261.019531 162.394531 260.304688 163.585938 C 259.589844 164.777344 258.847656 165.949219 258.074219 167.105469 C 257.304688 168.261719 256.503906 169.398438 255.675781 170.515625 C 254.847656 171.628906 253.996094 172.726562 253.113281 173.800781 C 252.234375 174.875 251.324219 175.925781 250.394531 176.957031 C 249.460938 177.984375 248.503906 178.992188 247.519531 179.976562 C 246.539062 180.957031 245.53125 181.917969 244.503906 182.847656 C 243.472656 183.78125 242.421875 184.691406 241.347656 185.570312 C 240.277344 186.453125 239.179688 187.308594 238.066406 188.136719 C 236.949219 188.964844 235.8125 189.765625 234.660156 190.535156 C 233.503906 191.308594 232.332031 192.050781 231.140625 192.765625 C 229.949219 193.480469 228.742188 194.164062 227.515625 194.820312 C 226.289062 195.476562 225.050781 196.101562 223.792969 196.695312 C 222.539062 197.289062 221.269531 197.851562 219.984375 198.382812 C 218.703125 198.914062 217.40625 199.417969 216.101562 199.882812 C 214.792969 200.351562 213.472656 200.789062 212.144531 201.191406 C 210.816406 201.59375 209.476562 201.964844 208.128906 202.304688 C 206.78125 202.640625 205.425781 202.945312 204.066406 203.214844 C 202.703125 203.488281 201.335938 203.726562 199.960938 203.929688 C 198.585938 204.132812 197.207031 204.304688 195.824219 204.441406 C 194.445312 204.574219 193.058594 204.679688 191.671875 204.746094 C 190.285156 204.8125 188.894531 204.847656 187.507812 204.847656 C 186.117188 204.847656 184.730469 204.8125 183.34375 204.746094 C 181.957031 204.679688 180.570312 204.574219 179.1875 204.441406 C 177.804688 204.304688 176.429688 204.132812 175.054688 203.929688 C 173.679688 203.726562 172.3125 203.488281 170.949219 203.214844 C 169.585938 202.945312 168.234375 202.640625 166.886719 202.304688 C 165.539062 201.964844 164.199219 201.59375 162.871094 201.191406 C 161.542969 200.789062 160.222656 200.351562 158.914062 199.882812 C 157.605469 199.417969 156.3125 198.914062 155.027344 198.382812 C 153.746094 197.851562 152.476562 197.289062 151.21875 196.695312 C 149.964844 196.101562 148.722656 195.476562 147.5 194.820312 C 146.273438 194.164062 145.066406 193.480469 143.875 192.765625 C 142.683594 192.050781 141.511719 191.308594 140.355469 190.535156 C 139.199219 189.765625 138.066406 188.964844 136.949219 188.136719 C 135.832031 187.308594 134.738281 186.453125 133.664062 185.570312 C 132.589844 184.691406 131.539062 183.78125 130.511719 182.847656 C 129.480469 181.917969 128.476562 180.957031 127.492188 179.976562 C 126.511719 178.992188 125.554688 177.984375 124.621094 176.957031 C 123.6875 175.925781 122.78125 174.875 121.902344 173.800781 C 121.019531 172.726562 120.164062 171.628906 119.335938 170.515625 C 118.511719 169.398438 117.710938 168.261719 116.9375 167.105469 C 116.167969 165.949219 115.425781 164.777344 114.710938 163.585938 C 113.996094 162.394531 113.3125 161.183594 112.65625 159.957031 C 112.003906 158.730469 111.378906 157.492188 110.785156 156.234375 C 110.191406 154.976562 109.628906 153.707031 109.097656 152.425781 C 108.566406 151.140625 108.066406 149.84375 107.597656 148.535156 C 107.128906 147.226562 106.691406 145.90625 106.289062 144.578125 C 105.886719 143.246094 105.515625 141.910156 105.179688 140.558594 C 104.839844 139.210938 104.539062 137.855469 104.265625 136.492188 C 103.996094 135.128906 103.757812 133.761719 103.554688 132.386719 C 103.351562 131.011719 103.179688 129.632812 103.042969 128.25 C 102.90625 126.867188 102.804688 125.480469 102.738281 124.09375 C 102.667969 122.703125 102.636719 121.316406 102.636719 119.925781 C 102.636719 118.535156 102.667969 117.148438 102.738281 115.757812 C 102.804688 114.371094 102.90625 112.984375 103.042969 111.601562 C 103.179688 110.21875 103.351562 108.839844 103.554688 107.464844 C 103.757812 106.089844 103.996094 104.722656 104.265625 103.359375 C 104.539062 101.996094 104.839844 100.640625 105.179688 99.292969 C 105.515625 97.941406 105.886719 96.605469 106.289062 95.273438 C 106.691406 93.945312 107.128906 92.625 107.597656 91.316406 C 108.066406 90.007812 108.566406 88.710938 109.097656 87.425781 C 109.628906 86.144531 110.191406 84.871094 110.785156 83.617188 C 111.378906 82.359375 112.003906 81.117188 112.65625 79.894531 C 113.3125 78.667969 113.996094 77.457031 114.710938 76.265625 C 115.425781 75.074219 116.167969 73.902344 116.9375 72.746094 C 117.710938 71.589844 118.511719 70.453125 119.335938 69.335938 C 120.164062 68.222656 121.019531 67.125 121.902344 66.050781 C 122.78125 64.976562 123.6875 63.925781 124.621094 62.894531 C 125.554688 61.867188 126.511719 60.859375 127.492188 59.875 C 128.476562 58.894531 129.480469 57.933594 130.511719 57.003906 C 131.539062 56.070312 132.589844 55.160156 133.664062 54.28125 C 134.738281 53.398438 135.832031 52.542969 136.949219 51.714844 C 138.066406 50.886719 139.199219 50.085938 140.355469 49.316406 C 141.511719 48.542969 142.683594 47.800781 143.875 47.085938 C 145.066406 46.371094 146.273438 45.6875 147.5 45.03125 C 148.722656 44.375 149.964844 43.75 151.21875 43.15625 C 152.476562 42.5625 153.746094 42 155.027344 41.46875 C 156.3125 40.933594 157.605469 40.433594 158.914062 39.96875 C 160.222656 39.5 161.542969 39.0625 162.871094 38.660156 C 164.199219 38.257812 165.539062 37.886719 166.886719 37.546875 C 168.234375 37.210938 169.585938 36.90625 170.949219 36.632812 C 172.3125 36.363281 173.679688 36.125 175.054688 35.921875 C 176.429688 35.71875 177.804688 35.546875 179.1875 35.410156 C 180.570312 35.277344 181.957031 35.171875 183.34375 35.105469 C 184.730469 35.035156 186.117188 35.003906 187.507812 35.003906 C 188.894531 35.003906 190.285156 35.035156 191.671875 35.105469 C 193.058594 35.171875 194.445312 35.277344 195.824219 35.410156 C 197.207031 35.546875 198.585938 35.71875 199.960938 35.921875 C 201.335938 36.125 202.703125 36.363281 204.066406 36.632812 C 205.425781 36.90625 206.78125 37.210938 208.128906 37.546875 C 209.476562 37.886719 210.816406 38.257812 212.144531 38.660156 C 213.472656 39.0625 214.792969 39.5 216.101562 39.96875 C 217.40625 40.433594 218.703125 40.933594 219.984375 41.46875 C 221.269531 42 222.539062 42.5625 223.792969 43.15625 C 225.050781 43.75 226.289062 44.375 227.515625 45.03125 C 228.742188 45.6875 229.949219 46.371094 231.140625 47.085938 C 232.332031 47.800781 233.503906 48.542969 234.660156 49.316406 C 235.8125 50.085938 236.949219 50.886719 238.066406 51.714844 C 239.179688 52.542969 240.277344 53.398438 241.347656 54.28125 C 242.421875 55.160156 243.472656 56.070312 244.503906 57.003906 C 245.53125 57.933594 246.539062 58.894531 247.519531 59.875 C 248.503906 60.859375 249.460938 61.867188 250.394531 62.894531 C 251.324219 63.925781 252.234375 64.976562 253.113281 66.050781 C 253.996094 67.125 254.847656 68.222656 255.675781 69.335938 C 256.503906 70.453125 257.304688 71.589844 258.074219 72.746094 C 258.847656 73.902344 259.589844 75.074219 260.304688 76.265625 C 261.019531 77.457031 261.703125 78.667969 262.355469 79.894531 C 263.011719 81.117188 263.636719 82.359375 264.230469 83.617188 C 264.824219 84.871094 265.386719 86.144531 265.917969 87.425781 C 266.449219 88.710938 266.949219 90.007812 267.417969 91.316406 C 267.886719 92.625 268.320312 93.945312 268.722656 95.273438 C 269.128906 96.605469 269.496094 97.941406 269.835938 99.292969 C 270.171875 100.640625 270.476562 101.996094 270.75 103.359375 C 271.019531 104.722656 271.257812 106.089844 271.460938 107.464844 C 271.664062 108.839844 271.835938 110.21875 271.96875 111.601562 C 272.105469 112.984375 272.207031 114.371094 272.277344 115.757812 C 272.34375 117.148438 272.378906 118.535156 272.378906 119.925781 Z M 272.378906 119.925781 " fill-opacity="1" fill-rule="nonzero"/><path fill="#ff0000" d="M 143.394531 107.414062 C 143.394531 110.136719 142.242188 112.335938 139.933594 114.039062 C 137.625 115.746094 134.488281 116.597656 130.53125 116.597656 C 128.25 116.597656 126.246094 116.40625 124.539062 115.992188 C 122.835938 115.582031 121.242188 115.085938 119.757812 114.453125 L 119.757812 107.824219 L 120.527344 107.824219 C 122.011719 109.007812 123.632812 109.914062 125.476562 110.546875 C 127.289062 111.179688 129.046875 111.484375 130.722656 111.484375 C 131.164062 111.484375 131.714844 111.457031 132.429688 111.371094 C 133.144531 111.289062 133.71875 111.179688 134.160156 111.015625 C 134.710938 110.796875 135.148438 110.519531 135.507812 110.191406 C 135.863281 109.859375 136.027344 109.367188 136.027344 108.707031 C 136.027344 108.101562 135.78125 107.578125 135.257812 107.136719 C 134.738281 106.699219 133.996094 106.367188 133.003906 106.121094 C 131.960938 105.871094 130.863281 105.652344 129.707031 105.433594 C 128.554688 105.210938 127.453125 104.9375 126.464844 104.609375 C 124.128906 103.863281 122.480469 102.820312 121.433594 101.527344 C 120.417969 100.234375 119.894531 98.640625 119.894531 96.714844 C 119.894531 94.128906 121.050781 92.039062 123.359375 90.417969 C 125.667969 88.792969 128.636719 87.96875 132.265625 87.96875 C 134.078125 87.96875 135.863281 88.132812 137.652344 88.492188 C 139.4375 88.851562 140.949219 89.289062 142.269531 89.8125 L 142.269531 96.164062 L 141.5 96.164062 C 140.398438 95.285156 139.023438 94.542969 137.402344 93.9375 C 135.78125 93.332031 134.132812 93.03125 132.457031 93.03125 C 131.851562 93.03125 131.273438 93.058594 130.695312 93.140625 C 130.121094 93.222656 129.542969 93.359375 128.992188 93.605469 C 128.5 93.800781 128.085938 94.074219 127.757812 94.460938 C 127.398438 94.84375 127.234375 95.257812 127.234375 95.753906 C 127.234375 96.496094 127.507812 97.046875 128.058594 97.429688 C 128.609375 97.816406 129.652344 98.171875 131.21875 98.503906 C 132.234375 98.722656 133.199219 98.914062 134.132812 99.109375 C 135.066406 99.300781 136.085938 99.574219 137.15625 99.933594 C 139.273438 100.621094 140.839844 101.582031 141.828125 102.765625 C 142.898438 103.949219 143.394531 105.488281 143.394531 107.414062 Z M 143.394531 107.414062 " fill-opacity="1" fill-rule="nonzero"/><path fill="#ff0000" d="M 169.890625 93.800781 L 161.257812 93.800781 L 161.257812 116.074219 L 154.140625 116.074219 L 154.140625 93.800781 L 145.511719 93.800781 L 145.511719 88.464844 L 169.890625 88.464844 Z M 169.890625 93.800781 " fill-opacity="1" fill-rule="nonzero"/><path fill="#ff0000" d="M 199.683594 116.074219 L 192.34375 116.074219 L 190.421875 110.492188 L 180.195312 110.492188 L 178.273438 116.074219 L 171.097656 116.074219 L 181.296875 88.4375 L 189.484375 88.4375 Z M 188.6875 105.433594 L 185.28125 95.53125 L 181.871094 105.433594 Z M 188.6875 105.433594 " fill-opacity="1" fill-rule="nonzero"/><path fill="#ff0000" d="M 230.246094 116.074219 L 221.53125 116.074219 L 214.058594 105.957031 L 210.757812 105.957031 L 210.757812 116.074219 L 203.667969 116.074219 L 203.667969 88.464844 L 215.625 88.464844 C 217.246094 88.464844 218.648438 88.546875 219.828125 88.738281 C 221.011719 88.933594 222.109375 89.316406 223.128906 89.949219 C 224.171875 90.582031 224.996094 91.378906 225.601562 92.34375 C 226.207031 93.332031 226.507812 94.570312 226.507812 96.054688 C 226.507812 98.089844 226.039062 99.765625 225.078125 101.058594 C 224.144531 102.351562 222.769531 103.425781 221.039062 104.277344 Z M 219.140625 96.90625 C 219.140625 96.21875 219.003906 95.613281 218.703125 95.121094 C 218.425781 94.625 217.933594 94.238281 217.246094 93.9375 C 216.75 93.746094 216.199219 93.605469 215.570312 93.578125 C 214.9375 93.523438 214.167969 93.523438 213.316406 93.523438 L 210.730469 93.523438 L 210.730469 100.976562 L 212.929688 100.976562 C 214.058594 100.976562 215.019531 100.921875 215.789062 100.8125 C 216.558594 100.703125 217.191406 100.457031 217.710938 100.042969 C 218.207031 99.65625 218.566406 99.246094 218.785156 98.777344 C 219.03125 98.308594 219.140625 97.703125 219.140625 96.90625 Z M 219.140625 96.90625 " fill-opacity="1" fill-rule="nonzero"/><path fill="#ff0000" d="M 254.980469 93.800781 L 246.351562 93.800781 L 246.351562 116.074219 L 239.234375 116.074219 L 239.234375 93.800781 L 230.601562 93.800781 L 230.601562 88.464844 L 254.980469 88.464844 Z M 254.980469 93.800781 " fill-opacity="1" fill-rule="nonzero"/><path fill="#ff0000" d="M 166.042969 154.410156 L 158.921875 154.410156 L 158.921875 142.230469 L 148.398438 142.230469 L 148.398438 154.410156 L 141.277344 154.410156 L 141.277344 126.773438 L 148.398438 126.773438 L 148.398438 136.894531 L 158.921875 136.894531 L 158.921875 126.773438 L 166.042969 126.773438 Z M 166.042969 154.410156 " fill-opacity="1" fill-rule="nonzero"/><path fill="#ff0000" d="M 193.058594 154.410156 L 173.078125 154.410156 L 173.078125 126.773438 L 193.058594 126.773438 L 193.058594 132.109375 L 180.167969 132.109375 L 180.167969 136.867188 L 192.125 136.867188 L 192.125 142.203125 L 180.167969 142.203125 L 180.167969 149.023438 L 193.058594 149.023438 Z M 193.058594 154.410156 " fill-opacity="1" fill-rule="nonzero"/><path fill="#ff0000" d="M 225.628906 154.410156 L 216.914062 154.410156 L 209.414062 144.292969 L 206.113281 144.292969 L 206.113281 154.410156 L 199.023438 154.410156 L 199.023438 126.773438 L 210.980469 126.773438 C 212.601562 126.773438 214.003906 126.855469 215.183594 127.046875 C 216.367188 127.242188 217.464844 127.625 218.480469 128.257812 C 219.527344 128.890625 220.351562 129.6875 220.957031 130.652344 C 221.558594 131.640625 221.863281 132.878906 221.863281 134.363281 C 221.863281 136.398438 221.394531 138.078125 220.433594 139.367188 C 219.5 140.660156 218.125 141.734375 216.394531 142.585938 Z M 214.523438 135.242188 C 214.523438 134.554688 214.386719 133.953125 214.085938 133.457031 C 213.808594 132.960938 213.316406 132.574219 212.628906 132.273438 C 212.132812 132.082031 211.582031 131.945312 210.953125 131.917969 C 210.320312 131.859375 209.550781 131.859375 208.699219 131.859375 L 206.113281 131.859375 L 206.113281 139.3125 L 208.3125 139.3125 C 209.441406 139.3125 210.402344 139.257812 211.171875 139.148438 C 211.941406 139.039062 212.574219 138.792969 213.09375 138.378906 C 213.589844 137.992188 213.945312 137.582031 214.167969 137.113281 C 214.414062 136.644531 214.523438 136.042969 214.523438 135.242188 Z M 214.523438 135.242188 " fill-opacity="1" fill-rule="nonzero"/><path fill="#ff0000" d="M 248.714844 154.410156 L 228.734375 154.410156 L 228.734375 126.773438 L 248.714844 126.773438 L 248.714844 132.109375 L 235.824219 132.109375 L 235.824219 136.867188 L 247.78125 136.867188 L 247.78125 142.203125 L 235.824219 142.203125 L 235.824219 149.023438 L 248.714844 149.023438 Z M 248.714844 154.410156 " fill-opacity="1" fill-rule="nonzero"/><g clip-path="url(#2a51f3ae27)"><g clip-path="url(#ec8f88a8bf)"><path fill="#ffffff" d="M 103.566406 37.5 L 271.433594 37.5 L 271.433594 205.367188 L 103.566406 205.367188 Z M 103.566406 37.5 " fill-opacity="1" fill-rule="nonzero"/></g></g><g fill="#ff0000" fill-opacity="1"><g transform="translate(115.21838, 110.934559)"><g><path d="M 7.550781 0.253906 L 9.769531 0.308594 L 10.332031 0.253906 L 10.890625 0.113281 L 11.453125 0.0273438 L 12.015625 -0.195312 L 12.519531 -0.253906 L 13.054688 -0.503906 L 14.960938 -1.65625 L 15.777344 -2.5 L 16.058594 -2.890625 L 16.367188 -3.507812 L 16.535156 -4.015625 L 16.703125 -4.492188 L 16.871094 -5.894531 L 16.816406 -6.792969 L 16.394531 -8.421875 L 16.085938 -8.871094 L 15.355469 -9.714844 L 14.851562 -10.164062 L 14.402344 -10.386719 L 13.894531 -10.695312 L 11.707031 -11.371094 L 11.144531 -11.453125 L 10.582031 -11.480469 L 9.992188 -11.59375 L 9.179688 -11.59375 L 7.691406 -11.902344 L 6.652344 -12.40625 L 6.230469 -12.800781 L 6.121094 -13.644531 L 6.261719 -14.402344 L 6.597656 -14.765625 L 7.019531 -15.074219 L 7.46875 -15.328125 L 7.972656 -15.441406 L 8.871094 -15.46875 L 9.769531 -15.355469 L 10.273438 -15.214844 L 10.78125 -14.878906 L 11.257812 -14.484375 L 11.679688 -13.925781 L 12.296875 -13.558594 L 13.613281 -13.671875 L 14.375 -13.613281 L 14.933594 -13.613281 L 15.441406 -13.558594 L 15.972656 -13.953125 L 16.199219 -14.429688 L 16.085938 -14.960938 L 16.03125 -15.496094 L 15.242188 -16.957031 L 14.625 -17.796875 L 12.773438 -19.089844 L 11.199219 -19.621094 L 10.105469 -19.847656 L 7.945312 -19.902344 L 7.328125 -19.734375 L 6.765625 -19.707031 L 6.261719 -19.621094 L 5.195312 -19.285156 L 4.238281 -18.722656 L 2.890625 -17.796875 L 1.910156 -16.480469 L 1.402344 -14.933594 L 1.320312 -13.558594 L 1.347656 -12.6875 L 1.542969 -11.566406 L 1.992188 -10.582031 L 3.03125 -9.292969 L 4.941406 -8.253906 L 5.953125 -7.917969 L 10.359375 -7.410156 L 11.371094 -6.933594 L 11.734375 -6.597656 L 11.902344 -5.894531 L 11.679688 -5.195312 L 11.3125 -4.773438 L 10.359375 -4.351562 L 9.488281 -4.296875 L 8.984375 -4.210938 L 7.550781 -4.351562 L 7.074219 -4.605469 L 6.597656 -4.914062 L 5.671875 -5.921875 L 5.109375 -6.148438 L 4.605469 -6.089844 L 4.070312 -6.175781 L 1.910156 -6.0625 L 1.402344 -5.839844 L 1.179688 -5.25 L 1.261719 -4.6875 L 1.375 -4.125 L 1.542969 -3.621094 L 2.078125 -2.582031 L 2.46875 -2.21875 L 2.835938 -1.796875 L 3.816406 -1.179688 L 4.210938 -0.757812 L 4.746094 -0.503906 L 5.304688 -0.335938 L 6.402344 0.0546875 Z M 7.550781 0.253906 "/></g></g></g><g fill="#ff0000" fill-opacity="1"><g transform="translate(133.124778, 110.934559)"><g><path d="M 7.328125 0.0546875 L 9.207031 0 L 10.023438 -0.28125 L 10.300781 -1.066406 L 10.386719 -2.527344 L 10.300781 -3.59375 L 10.359375 -4.183594 L 10.332031 -5.304688 L 10.386719 -5.8125 L 10.300781 -6.429688 L 10.359375 -10.949219 L 10.273438 -11.539062 L 10.359375 -13.980469 L 10.582031 -14.824219 L 11.117188 -15.160156 L 12.210938 -15.214844 L 13.25 -15.074219 L 13.839844 -15.160156 L 14.34375 -15.132812 L 14.824219 -15.441406 L 15.160156 -16.058594 L 15.1875 -18.722656 L 14.878906 -19.285156 L 14.34375 -19.652344 L 12.605469 -19.652344 L 12.070312 -19.707031 L 11.480469 -19.621094 L 10.949219 -19.679688 L 8.675781 -19.566406 L 8.113281 -19.679688 L 7.578125 -19.707031 L 6.988281 -19.621094 L 6.371094 -19.679688 L 5.867188 -19.566406 L 4.210938 -19.652344 L 3.339844 -19.566406 L 1.375 -19.679688 L 0.84375 -19.398438 L 0.503906 -18.753906 L 0.535156 -18.191406 L 0.476562 -16.789062 L 0.535156 -15.917969 L 0.785156 -15.410156 L 1.292969 -15.132812 L 1.851562 -15.1875 L 4.519531 -15.132812 L 5.054688 -14.851562 L 5.363281 -14.289062 L 5.304688 -13.390625 L 5.363281 -12.605469 L 5.332031 -11.988281 L 5.363281 -11.425781 L 5.304688 -10.640625 L 5.390625 -6.457031 L 5.332031 -5.894531 L 5.304688 -3.621094 L 5.363281 -3.03125 L 5.332031 -1.402344 L 5.277344 -0.871094 L 5.640625 -0.253906 L 6.457031 0.0273438 Z M 7.328125 0.0546875 "/></g></g></g><g fill="#ff0000" fill-opacity="1"><g transform="translate(148.813928, 110.934559)"><g><path d="M 16.5625 0.0546875 L 17.628906 -0.0273438 L 18.164062 0.0273438 L 19.03125 0 L 19.820312 -0.140625 L 19.902344 -0.8125 L 19.707031 -1.460938 L 19.285156 -2.5 L 18.527344 -3.957031 L 18.136719 -4.996094 L 17.574219 -6.007812 L 16.507812 -8.5625 L 16.226562 -8.984375 L 15.945312 -9.515625 L 15.777344 -10.132812 L 15.523438 -10.554688 L 15.355469 -11.003906 L 14.765625 -12.042969 L 14.570312 -12.632812 L 12.71875 -16.535156 L 12.546875 -17.097656 L 12.238281 -17.601562 L 12.070312 -18.105469 L 11.539062 -19.089844 L 11.0625 -19.59375 L 10.132812 -19.875 L 9.234375 -19.566406 L 8.730469 -19.089844 L 8.476562 -18.613281 L 8.28125 -18.050781 L 8.027344 -17.65625 L 6.90625 -15.074219 L 6.597656 -14.652344 L 6.457031 -14.09375 L 6.148438 -13.558594 L 5.980469 -13.054688 L 3.117188 -7.046875 L 2.949219 -6.429688 L 2.667969 -6.007812 L 2.46875 -5.445312 L 1.964844 -4.546875 L 1.542969 -3.425781 L 1.234375 -3.03125 L 1.09375 -2.527344 L 0.535156 -1.402344 L 0.363281 -0.84375 L 0.503906 -0.140625 L 1.066406 0.0273438 L 2.160156 -0.0273438 L 2.722656 0.0273438 L 4.296875 -0.0273438 L 4.941406 -0.222656 L 5.472656 -0.730469 L 5.980469 -1.65625 L 6.511719 -2.191406 L 7.101562 -2.5 L 7.636719 -2.414062 L 8.816406 -2.527344 L 9.320312 -2.441406 L 12.070312 -2.46875 L 12.578125 -2.414062 L 13.195312 -2.5 L 13.8125 -2.191406 L 14.34375 -1.742188 L 14.597656 -1.207031 L 14.765625 -0.703125 L 15.328125 -0.28125 L 15.972656 0 Z M 10.191406 -6.933594 L 9.628906 -7.046875 L 8.984375 -6.988281 L 8.535156 -7.1875 L 8.507812 -7.71875 L 9.824219 -10.75 L 10.132812 -11.003906 L 10.527344 -10.78125 L 11.847656 -7.691406 L 11.734375 -7.1875 L 11.3125 -6.960938 Z M 10.191406 -6.933594 "/></g></g></g><g fill="#ff0000" fill-opacity="1"><g transform="translate(169.190178, 110.934559)"><g><path d="M 2.105469 -1.152344 L 2.386719 -0.28125 L 3.199219 0.0859375 L 3.761719 0 L 4.660156 0.0859375 L 5.109375 0.0273438 L 5.953125 0.0273438 L 6.851562 -0.253906 L 7.101562 -1.066406 L 7.101562 -2.019531 L 7.160156 -2.527344 L 7.074219 -3.117188 L 7.128906 -4.914062 L 7.382812 -5.472656 L 7.917969 -5.78125 L 9.542969 -5.558594 L 10.105469 -5.082031 L 10.441406 -4.519531 L 10.667969 -4.015625 L 11.257812 -3.171875 L 11.789062 -2.160156 L 12.097656 -1.742188 L 12.324219 -1.179688 L 12.632812 -0.703125 L 13.25 -0.195312 L 14.203125 0.0546875 L 16.421875 0.0273438 L 16.957031 0.0859375 L 17.882812 0.0546875 L 18.414062 -0.195312 L 18.585938 -0.8125 L 18.273438 -1.433594 L 17.9375 -1.824219 L 17.714844 -2.359375 L 16.757812 -3.789062 L 16.507812 -4.296875 L 15.609375 -5.753906 L 15.269531 -6.175781 L 15.242188 -6.851562 L 15.496094 -7.46875 L 15.890625 -7.886719 L 16.28125 -8.226562 L 17.375 -10.191406 L 17.742188 -11.820312 L 17.6875 -13.585938 L 17.601562 -14.148438 L 17.097656 -15.75 L 16.871094 -16.226562 L 16.5625 -16.675781 L 14.960938 -18.359375 L 13.980469 -18.894531 L 12.914062 -19.257812 L 11.3125 -19.621094 L 10.414062 -19.652344 L 9.601562 -19.59375 L 7.917969 -19.59375 L 7.355469 -19.707031 L 6.792969 -19.707031 L 6.289062 -19.566406 L 5.726562 -19.566406 L 5.164062 -19.679688 L 4.546875 -19.707031 L 2.890625 -19.566406 L 2.386719 -19.285156 L 2.050781 -18.5 L 2.078125 -12.070312 L 2.132812 -11.507812 L 2.050781 -10.386719 L 2.078125 -9.769531 L 2.078125 -9.207031 L 2.132812 -8.675781 L 2.078125 -8.140625 L 2.050781 -5.867188 L 2.105469 -5.304688 Z M 7.917969 -10.273438 L 7.355469 -10.582031 L 7.128906 -11.03125 L 7.128906 -12.71875 L 7.074219 -13.195312 L 7.128906 -14.375 L 7.382812 -14.90625 L 7.972656 -15.132812 L 8.535156 -15.101562 L 9.65625 -15.214844 L 10.441406 -15.046875 L 11.171875 -14.992188 L 11.707031 -14.851562 L 12.40625 -13.980469 L 12.578125 -13.53125 L 12.6875 -12.800781 L 12.605469 -11.957031 L 12.351562 -11.398438 L 12.042969 -10.976562 L 11.734375 -10.722656 L 11.230469 -10.5 L 10.414062 -10.300781 L 9.882812 -10.273438 L 8.535156 -10.332031 Z M 7.917969 -10.273438 "/></g></g></g><g fill="#ff0000" fill-opacity="1"><g transform="translate(188.668296, 110.934559)"><g><path d="M 7.328125 0.0546875 L 9.207031 0 L 10.023438 -0.28125 L 10.300781 -1.066406 L 10.386719 -2.527344 L 10.300781 -3.59375 L 10.359375 -4.183594 L 10.332031 -5.304688 L 10.386719 -5.8125 L 10.300781 -6.429688 L 10.359375 -10.949219 L 10.273438 -11.539062 L 10.359375 -13.980469 L 10.582031 -14.824219 L 11.117188 -15.160156 L 12.210938 -15.214844 L 13.25 -15.074219 L 13.839844 -15.160156 L 14.34375 -15.132812 L 14.824219 -15.441406 L 15.160156 -16.058594 L 15.1875 -18.722656 L 14.878906 -19.285156 L 14.34375 -19.652344 L 12.605469 -19.652344 L 12.070312 -19.707031 L 11.480469 -19.621094 L 10.949219 -19.679688 L 8.675781 -19.566406 L 8.113281 -19.679688 L 7.578125 -19.707031 L 6.988281 -19.621094 L 6.371094 -19.679688 L 5.867188 -19.566406 L 4.210938 -19.652344 L 3.339844 -19.566406 L 1.375 -19.679688 L 0.84375 -19.398438 L 0.503906 -18.753906 L 0.535156 -18.191406 L 0.476562 -16.789062 L 0.535156 -15.917969 L 0.785156 -15.410156 L 1.292969 -15.132812 L 1.851562 -15.1875 L 4.519531 -15.132812 L 5.054688 -14.851562 L 5.363281 -14.289062 L 5.304688 -13.390625 L 5.363281 -12.605469 L 5.332031 -11.988281 L 5.363281 -11.425781 L 5.304688 -10.640625 L 5.390625 -6.457031 L 5.332031 -5.894531 L 5.304688 -3.621094 L 5.363281 -3.03125 L 5.332031 -1.402344 L 5.277344 -0.871094 L 5.640625 -0.253906 L 6.457031 0.0273438 Z M 7.328125 0.0546875 "/></g></g></g><g fill="#ff0000" fill-opacity="1"><g transform="translate(204.357446, 110.934559)"><g><path d="M 9.402344 0.113281 L 10.527344 0.0546875 L 11.03125 -0.222656 L 11.3125 -0.757812 L 11.3125 -3.539062 L 10.976562 -4.070312 L 10.359375 -4.378906 L 9.769531 -4.378906 L 9.09375 -4.605469 L 8.757812 -5.25 L 8.84375 -5.78125 L 8.816406 -8.871094 L 8.871094 -9.488281 L 8.757812 -11.507812 L 8.871094 -14.34375 L 9.066406 -14.992188 L 9.683594 -15.242188 L 10.246094 -15.328125 L 10.835938 -15.550781 L 11.117188 -16 L 11.144531 -18.78125 L 10.808594 -19.3125 L 10.300781 -19.621094 L 6.90625 -19.621094 L 6.402344 -19.679688 L 5.839844 -19.566406 L 3.539062 -19.566406 L 3.003906 -19.652344 L 2.359375 -19.652344 L 1.796875 -19.371094 L 1.515625 -18.695312 L 1.601562 -16.617188 L 1.542969 -16.085938 L 1.851562 -15.523438 L 2.46875 -15.214844 L 3.03125 -15.214844 L 3.566406 -14.878906 L 3.816406 -14.121094 L 3.902344 -5.503906 L 3.59375 -4.660156 L 1.742188 -4.097656 L 1.433594 -3.59375 L 1.347656 -1.011719 L 1.628906 -0.253906 L 2.191406 0 L 2.722656 0 L 3.257812 -0.0546875 L 4.070312 0.0546875 L 4.941406 0.0273438 L 5.503906 -0.0273438 L 6.625 0.0859375 L 7.46875 -0.0273438 L 8.84375 -0.0273438 Z M 9.402344 0.113281 "/></g></g></g><g fill="#ff0000" fill-opacity="1"><g transform="translate(217.099618, 110.934559)"><g><path d="M 16.5625 -0.476562 L 17.320312 -0.0273438 L 18.105469 0.0546875 L 18.722656 -0.140625 L 19.003906 -0.703125 L 19.0625 -10.949219 L 18.976562 -11.425781 L 18.976562 -14.203125 L 19.0625 -14.878906 L 18.976562 -18.78125 L 18.695312 -19.34375 L 18.136719 -19.652344 L 14.652344 -19.621094 L 14.121094 -19.3125 L 13.8125 -18.722656 L 13.785156 -18.136719 L 13.867188 -17.6875 L 13.785156 -16.507812 L 13.839844 -15.890625 L 13.785156 -10.863281 L 13.613281 -10.386719 L 13.195312 -10.582031 L 11.199219 -12.578125 L 10.414062 -13.195312 L 4.882812 -18.78125 L 4.464844 -19.117188 L 3.816406 -19.453125 L 2.976562 -19.652344 L 2.328125 -19.371094 L 2.078125 -18.835938 L 2.078125 -10.332031 L 2.050781 -9.851562 L 2.105469 -8.703125 L 2.019531 -8.226562 L 2.078125 -3.621094 L 2.019531 -3.089844 L 2.078125 -0.730469 L 2.328125 -0.195312 L 2.917969 0 L 4.070312 0.0546875 L 4.6875 0 L 5.78125 0.0859375 L 6.371094 0.0546875 L 6.933594 -0.222656 L 7.214844 -1.09375 L 7.242188 -8.195312 L 7.300781 -8.757812 L 7.496094 -9.234375 L 7.859375 -9.09375 L 8.226562 -8.617188 L 10.21875 -6.710938 L 10.582031 -6.289062 L 11.0625 -5.980469 L 15.410156 -1.65625 L 16.140625 -0.84375 Z M 16.5625 -0.476562 "/></g></g></g><g fill="#ff0000" fill-opacity="1"><g transform="translate(238.261722, 110.934559)"><g><path d="M 9.742188 0.28125 L 12.546875 0.28125 L 14.652344 -0.222656 L 16.648438 -1.234375 L 17.515625 -1.910156 L 17.9375 -2.359375 L 18.359375 -2.695312 L 18.695312 -3.089844 L 18.976562 -3.566406 L 19.230469 -4.070312 L 19.566406 -4.464844 L 20.128906 -6.121094 L 20.351562 -7.1875 L 20.378906 -7.664062 L 20.492188 -8.167969 L 20.492188 -8.730469 L 20.550781 -9.265625 L 20.492188 -10.332031 L 20.210938 -10.808594 L 19.679688 -11.089844 L 19.089844 -11.117188 L 18.5 -11.199219 L 14.710938 -11.117188 L 13.027344 -11.230469 L 11.957031 -11.144531 L 11.398438 -10.863281 L 11.144531 -10.332031 L 11.144531 -7.664062 L 11.398438 -7.214844 L 11.902344 -6.90625 L 12.71875 -6.851562 L 14.121094 -6.960938 L 14.625 -6.878906 L 15.046875 -6.679688 L 15.132812 -6.203125 L 14.851562 -5.726562 L 14.429688 -5.25 L 14.035156 -4.941406 L 13.109375 -4.574219 L 12.015625 -4.324219 L 11.285156 -4.296875 L 9.851562 -4.464844 L 8.335938 -5.082031 L 7.496094 -5.867188 L 7.1875 -6.261719 L 6.652344 -7.269531 L 6.429688 -8.085938 L 6.289062 -8.984375 L 6.261719 -10.613281 L 6.457031 -11.707031 L 6.90625 -12.71875 L 7.777344 -14.035156 L 8.757812 -14.738281 L 9.234375 -14.992188 L 9.769531 -15.046875 L 10.246094 -15.269531 L 11.957031 -15.328125 L 12.996094 -15.046875 L 13.53125 -14.824219 L 14.0625 -14.457031 L 14.402344 -14.09375 L 14.765625 -13.613281 L 15.355469 -13.136719 L 16.03125 -12.941406 L 16.898438 -12.914062 L 17.742188 -13.027344 L 19.089844 -12.941406 L 19.792969 -13.25 L 19.960938 -13.726562 L 19.566406 -14.878906 L 19.3125 -15.382812 L 18.191406 -17.011719 L 17.574219 -17.515625 L 17.125 -17.9375 L 16.703125 -18.273438 L 14.738281 -19.3125 L 14.148438 -19.425781 L 12.828125 -19.792969 L 10.21875 -19.902344 L 9.65625 -19.875 L 9.179688 -19.707031 L 8.644531 -19.679688 L 6.484375 -18.894531 L 4.941406 -17.9375 L 3.707031 -16.84375 L 3.339844 -16.394531 L 2.917969 -15.972656 L 2.609375 -15.550781 L 1.570312 -13.445312 L 1.066406 -10.667969 L 1.039062 -9.769531 L 1.179688 -7.804688 L 1.964844 -5.164062 L 2.46875 -4.210938 L 3.117188 -3.257812 L 4.238281 -2.078125 L 5.164062 -1.433594 L 7.101562 -0.308594 L 7.578125 -0.167969 L 9.179688 0.113281 Z M 9.742188 0.28125 "/></g></g></g><g fill="#ff0000" fill-opacity="1"><g transform="translate(142.20666, 149.934557)"><g><path d="M 3.761719 0.0859375 L 5.136719 0.0273438 L 5.640625 0.0546875 L 6.289062 0 L 6.878906 -0.222656 L 7.128906 -0.8125 L 7.101562 -1.375 L 7.128906 -1.992188 L 7.074219 -3.03125 L 7.128906 -3.566406 L 7.101562 -4.210938 L 7.355469 -4.714844 L 8 -5.023438 L 8.617188 -5.082031 L 9.207031 -4.96875 L 12.097656 -5.195312 L 14.765625 -6.261719 L 15.1875 -6.597656 L 15.582031 -7.046875 L 15.945312 -7.410156 L 16.308594 -7.832031 L 16.898438 -8.730469 L 17.375 -9.824219 L 17.460938 -10.441406 L 17.628906 -10.890625 L 17.6875 -13.195312 L 17.574219 -13.671875 L 17.488281 -14.289062 L 17.152344 -15.328125 L 16.617188 -16.28125 L 15.945312 -17.207031 L 14.683594 -18.304688 L 13.753906 -18.921875 L 12.632812 -19.257812 L 12.15625 -19.453125 L 11.59375 -19.453125 L 11.03125 -19.652344 L 10.191406 -19.679688 L 9.292969 -19.652344 L 8.675781 -19.566406 L 6.960938 -19.59375 L 6.402344 -19.679688 L 4.660156 -19.566406 L 4.042969 -19.59375 L 3.539062 -19.679688 L 2.949219 -19.566406 L 2.359375 -19.257812 L 2.105469 -18.808594 L 2.132812 -15.410156 L 2.019531 -14.289062 L 2.078125 -13.753906 L 2.050781 -6.484375 L 2.105469 -5.953125 L 2.078125 -0.757812 L 2.386719 -0.222656 L 3.257812 0.0546875 Z M 7.972656 -9.515625 L 7.410156 -9.851562 L 7.160156 -10.332031 L 7.074219 -12.605469 L 7.128906 -13.195312 L 7.128906 -14.34375 L 7.410156 -14.878906 L 8 -15.160156 L 10.921875 -15.074219 L 11.480469 -14.824219 L 11.929688 -14.511719 L 12.296875 -14.148438 L 12.578125 -13.585938 L 12.660156 -13.082031 L 12.71875 -12.296875 L 12.660156 -11.539062 L 12.464844 -11.03125 L 12.210938 -10.582031 L 11.847656 -10.132812 L 11.398438 -9.796875 L 10.949219 -9.65625 L 10.078125 -9.542969 L 8.644531 -9.574219 Z M 7.972656 -9.515625 "/></g></g></g><g fill="#ff0000" fill-opacity="1"><g transform="translate(160.67439, 149.934557)"><g><path d="M 11.257812 0.363281 L 13.753906 0.113281 L 14.824219 -0.222656 L 17.320312 -1.347656 L 19.285156 -3.226562 L 19.652344 -3.734375 L 20.746094 -5.671875 L 20.941406 -6.203125 L 21.027344 -6.765625 L 21.195312 -7.214844 L 21.308594 -7.832031 L 21.449219 -9.796875 L 21.308594 -11.734375 L 21.082031 -12.773438 L 20.859375 -13.363281 L 20.71875 -14.007812 L 20.210938 -14.933594 L 20.015625 -15.441406 L 19.652344 -15.917969 L 19.3125 -16.253906 L 18.949219 -16.757812 L 17.742188 -17.855469 L 16.308594 -18.753906 L 12.632812 -19.902344 L 11.3125 -19.929688 L 9.347656 -19.820312 L 8.785156 -19.707031 L 8.226562 -19.539062 L 7.71875 -19.3125 L 6.652344 -19.03125 L 5.222656 -18.136719 L 4.828125 -17.796875 L 3.929688 -17.179688 L 3.171875 -16.339844 L 2.21875 -14.933594 L 1.964844 -14.457031 L 1.433594 -12.914062 L 1.207031 -11.707031 L 1.09375 -8.449219 L 1.402344 -6.679688 L 1.824219 -5.726562 L 1.992188 -5.136719 L 2.273438 -4.632812 L 3.59375 -2.835938 L 4.378906 -2.078125 L 4.746094 -1.65625 L 6.652344 -0.644531 L 7.1875 -0.421875 L 9.574219 0.28125 Z M 10.472656 -4.574219 L 9.910156 -4.773438 L 9.402344 -4.828125 L 8.449219 -5.332031 L 7.578125 -6.089844 L 7.300781 -6.484375 L 6.933594 -6.878906 L 6.402344 -8.449219 L 6.261719 -9.851562 L 6.289062 -10.695312 L 6.484375 -11.734375 L 6.652344 -12.238281 L 6.988281 -12.632812 L 7.242188 -13.109375 L 7.609375 -13.558594 L 8.027344 -13.925781 L 8.84375 -14.484375 L 9.347656 -14.738281 L 9.9375 -14.878906 L 11.230469 -14.992188 L 12.578125 -14.90625 L 14.0625 -14.261719 L 14.933594 -13.613281 L 15.582031 -12.660156 L 15.804688 -12.15625 L 15.972656 -11.59375 L 16.167969 -11.089844 L 16.28125 -9.882812 L 16.113281 -8.476562 L 15.859375 -7.328125 L 15.550781 -6.90625 L 15.300781 -6.484375 L 14.960938 -5.980469 L 14.09375 -5.304688 L 13.585938 -5.082031 L 13.136719 -4.828125 L 12.632812 -4.773438 L 12.097656 -4.632812 Z M 10.472656 -4.574219 "/></g></g></g><g fill="#ff0000" fill-opacity="1"><g transform="translate(183.183681, 149.934557)"><g><path d="M 9.402344 0.113281 L 10.527344 0.0546875 L 11.03125 -0.222656 L 11.3125 -0.757812 L 11.3125 -3.539062 L 10.976562 -4.070312 L 10.359375 -4.378906 L 9.769531 -4.378906 L 9.09375 -4.605469 L 8.757812 -5.25 L 8.84375 -5.78125 L 8.816406 -8.871094 L 8.871094 -9.488281 L 8.757812 -11.507812 L 8.871094 -14.34375 L 9.066406 -14.992188 L 9.683594 -15.242188 L 10.246094 -15.328125 L 10.835938 -15.550781 L 11.117188 -16 L 11.144531 -18.78125 L 10.808594 -19.3125 L 10.300781 -19.621094 L 6.90625 -19.621094 L 6.402344 -19.679688 L 5.839844 -19.566406 L 3.539062 -19.566406 L 3.003906 -19.652344 L 2.359375 -19.652344 L 1.796875 -19.371094 L 1.515625 -18.695312 L 1.601562 -16.617188 L 1.542969 -16.085938 L 1.851562 -15.523438 L 2.46875 -15.214844 L 3.03125 -15.214844 L 3.566406 -14.878906 L 3.816406 -14.121094 L 3.902344 -5.503906 L 3.59375 -4.660156 L 1.742188 -4.097656 L 1.433594 -3.59375 L 1.347656 -1.011719 L 1.628906 -0.253906 L 2.191406 0 L 2.722656 0 L 3.257812 -0.0546875 L 4.070312 0.0546875 L 4.941406 0.0273438 L 5.503906 -0.0273438 L 6.625 0.0859375 L 7.46875 -0.0273438 L 8.84375 -0.0273438 Z M 9.402344 0.113281 "/></g></g></g><g fill="#ff0000" fill-opacity="1"><g transform="translate(195.925853, 149.934557)"><g><path d="M 16.5625 -0.476562 L 17.320312 -0.0273438 L 18.105469 0.0546875 L 18.722656 -0.140625 L 19.003906 -0.703125 L 19.0625 -10.949219 L 18.976562 -11.425781 L 18.976562 -14.203125 L 19.0625 -14.878906 L 18.976562 -18.78125 L 18.695312 -19.34375 L 18.136719 -19.652344 L 14.652344 -19.621094 L 14.121094 -19.3125 L 13.8125 -18.722656 L 13.785156 -18.136719 L 13.867188 -17.6875 L 13.785156 -16.507812 L 13.839844 -15.890625 L 13.785156 -10.863281 L 13.613281 -10.386719 L 13.195312 -10.582031 L 11.199219 -12.578125 L 10.414062 -13.195312 L 4.882812 -18.78125 L 4.464844 -19.117188 L 3.816406 -19.453125 L 2.976562 -19.652344 L 2.328125 -19.371094 L 2.078125 -18.835938 L 2.078125 -10.332031 L 2.050781 -9.851562 L 2.105469 -8.703125 L 2.019531 -8.226562 L 2.078125 -3.621094 L 2.019531 -3.089844 L 2.078125 -0.730469 L 2.328125 -0.195312 L 2.917969 0 L 4.070312 0.0546875 L 4.6875 0 L 5.78125 0.0859375 L 6.371094 0.0546875 L 6.933594 -0.222656 L 7.214844 -1.09375 L 7.242188 -8.195312 L 7.300781 -8.757812 L 7.496094 -9.234375 L 7.859375 -9.09375 L 8.226562 -8.617188 L 10.21875 -6.710938 L 10.582031 -6.289062 L 11.0625 -5.980469 L 15.410156 -1.65625 L 16.140625 -0.84375 Z M 16.5625 -0.476562 "/></g></g></g><g fill="#ff0000" fill-opacity="1"><g transform="translate(217.087957, 149.934557)"><g><path d="M 7.328125 0.0546875 L 9.207031 0 L 10.023438 -0.28125 L 10.300781 -1.066406 L 10.386719 -2.527344 L 10.300781 -3.59375 L 10.359375 -4.183594 L 10.332031 -5.304688 L 10.386719 -5.8125 L 10.300781 -6.429688 L 10.359375 -10.949219 L 10.273438 -11.539062 L 10.359375 -13.980469 L 10.582031 -14.824219 L 11.117188 -15.160156 L 12.210938 -15.214844 L 13.25 -15.074219 L 13.839844 -15.160156 L 14.34375 -15.132812 L 14.824219 -15.441406 L 15.160156 -16.058594 L 15.1875 -18.722656 L 14.878906 -19.285156 L 14.34375 -19.652344 L 12.605469 -19.652344 L 12.070312 -19.707031 L 11.480469 -19.621094 L 10.949219 -19.679688 L 8.675781 -19.566406 L 8.113281 -19.679688 L 7.578125 -19.707031 L 6.988281 -19.621094 L 6.371094 -19.679688 L 5.867188 -19.566406 L 4.210938 -19.652344 L 3.339844 -19.566406 L 1.375 -19.679688 L 0.84375 -19.398438 L 0.503906 -18.753906 L 0.535156 -18.191406 L 0.476562 -16.789062 L 0.535156 -15.917969 L 0.785156 -15.410156 L 1.292969 -15.132812 L 1.851562 -15.1875 L 4.519531 -15.132812 L 5.054688 -14.851562 L 5.363281 -14.289062 L 5.304688 -13.390625 L 5.363281 -12.605469 L 5.332031 -11.988281 L 5.363281 -11.425781 L 5.304688 -10.640625 L 5.390625 -6.457031 L 5.332031 -5.894531 L 5.304688 -3.621094 L 5.363281 -3.03125 L 5.332031 -1.402344 L 5.277344 -0.871094 L 5.640625 -0.253906 L 6.457031 0.0273438 Z M 7.328125 0.0546875 "/></g></g></g></svg>