<svg xmlns="http://www.w3.org/2000/svg" xmlns:xlink="http://www.w3.org/1999/xlink" width="500" zoomAndPan="magnify" viewBox="0 0 375 374.999991" height="500" preserveAspectRatio="xMidYMid meet" version="1.0"><defs><g/><clipPath id="b7096c5a4f"><path d="M 141 323 L 235 323 L 235 362.910156 L 141 362.910156 Z M 141 323 " clip-rule="nonzero"/></clipPath><clipPath id="1c559d186f"><path d="M 84.339844 12 L 290.589844 12 L 290.589844 339 L 84.339844 339 Z M 84.339844 12 " clip-rule="nonzero"/></clipPath></defs><g clip-path="url(#b7096c5a4f)"><path fill="#503205" d="M 234.09375 342.804688 C 234.09375 353.679688 213.453125 362.496094 187.988281 362.496094 C 162.523438 362.496094 141.882812 353.679688 141.882812 342.804688 C 141.882812 331.9375 162.523438 323.117188 187.988281 323.117188 C 213.453125 323.117188 234.09375 331.9375 234.09375 342.804688 " fill-opacity="1" fill-rule="nonzero"/></g><path fill="#ff758a" d="M 233.15625 338.039062 C 233.15625 348.914062 212.722656 357.730469 187.519531 357.730469 C 162.316406 357.730469 141.882812 348.914062 141.882812 338.039062 C 141.882812 327.167969 162.316406 318.351562 187.519531 318.351562 C 212.722656 318.351562 233.15625 327.167969 233.15625 338.039062 " fill-opacity="1" fill-rule="nonzero"/><g clip-path="url(#1c559d186f)"><path fill="#f53855" d="M 189.277344 12.324219 C 188.667969 12.324219 188.070312 12.359375 187.46875 12.375 C 186.859375 12.359375 186.261719 12.324219 185.652344 12.324219 C 129.675781 12.324219 84.292969 59.625 84.292969 117.96875 C 84.292969 127.925781 88.15625 150.949219 93.957031 160.5 L 187.46875 338.039062 L 280.972656 160.5 C 286.773438 150.949219 290.636719 127.925781 290.636719 117.96875 C 290.636719 59.625 245.261719 12.324219 189.277344 12.324219 " fill-opacity="1" fill-rule="nonzero"/></g><path fill="#ffffff" d="M 243.445312 106.199219 C 243.445312 137.109375 218.378906 162.164062 187.46875 162.164062 C 156.550781 162.164062 131.484375 137.109375 131.484375 106.199219 C 131.484375 75.289062 156.550781 50.234375 187.46875 50.234375 C 218.378906 50.234375 243.445312 75.289062 243.445312 106.199219 " fill-opacity="1" fill-rule="nonzero"/><g fill="#000000" fill-opacity="1"><g transform="translate(138.90234, 135.953348)"><g><path d="M 20.171875 0.675781 L 26.097656 0.824219 L 27.597656 0.675781 L 29.097656 0.300781 L 30.597656 0.0742188 L 32.097656 -0.523438 L 33.445312 -0.675781 L 34.871094 -1.351562 L 39.972656 -4.425781 L 42.144531 -6.675781 L 42.894531 -7.722656 L 43.71875 -9.375 L 44.171875 -10.722656 L 44.621094 -12 L 45.070312 -15.75 L 44.921875 -18.148438 L 43.796875 -22.496094 L 42.96875 -23.699219 L 41.019531 -25.949219 L 39.671875 -27.148438 L 38.472656 -27.746094 L 37.121094 -28.570312 L 31.273438 -30.371094 L 29.773438 -30.597656 L 28.273438 -30.671875 L 26.699219 -30.972656 L 24.523438 -30.972656 L 20.546875 -31.796875 L 17.773438 -33.148438 L 16.648438 -34.195312 L 16.347656 -36.445312 L 16.722656 -38.472656 L 17.625 -39.445312 L 18.75 -40.269531 L 19.949219 -40.945312 L 21.296875 -41.246094 L 23.699219 -41.320312 L 26.097656 -41.019531 L 27.445312 -40.644531 L 28.796875 -39.746094 L 30.070312 -38.695312 L 31.195312 -37.195312 L 32.847656 -36.222656 L 36.371094 -36.519531 L 38.394531 -36.371094 L 39.894531 -36.371094 L 41.246094 -36.222656 L 42.671875 -37.269531 L 43.269531 -38.546875 L 42.96875 -39.972656 L 42.820312 -41.394531 L 40.722656 -45.296875 L 39.070312 -47.546875 L 34.121094 -50.996094 L 29.921875 -52.417969 L 26.996094 -53.019531 L 21.222656 -53.167969 L 19.574219 -52.71875 L 18.074219 -52.644531 L 16.722656 -52.417969 L 13.875 -51.519531 L 11.324219 -50.019531 L 7.722656 -47.546875 L 5.097656 -44.019531 L 3.75 -39.894531 L 3.523438 -36.222656 L 3.601562 -33.898438 L 4.125 -30.898438 L 5.324219 -28.273438 L 8.097656 -24.824219 L 13.199219 -22.046875 L 15.898438 -21.148438 L 27.671875 -19.796875 L 30.371094 -18.523438 L 31.347656 -17.625 L 31.796875 -15.75 L 31.195312 -13.875 L 30.222656 -12.75 L 27.671875 -11.625 L 25.347656 -11.472656 L 23.996094 -11.25 L 20.171875 -11.625 L 18.898438 -12.296875 L 17.625 -13.125 L 15.148438 -15.824219 L 13.648438 -16.421875 L 12.296875 -16.273438 L 10.875 -16.5 L 5.097656 -16.199219 L 3.75 -15.597656 L 3.148438 -14.023438 L 3.375 -12.523438 L 3.675781 -11.023438 L 4.125 -9.675781 L 5.550781 -6.898438 L 6.597656 -5.925781 L 7.574219 -4.800781 L 10.199219 -3.148438 L 11.25 -2.023438 L 12.671875 -1.351562 L 14.171875 -0.898438 L 17.097656 0.148438 Z M 20.171875 0.675781 "/></g></g></g><g fill="#000000" fill-opacity="1"><g transform="translate(186.744878, 135.953348)"><g><path d="M 10.050781 0.226562 L 13.722656 0.0742188 L 15.074219 0.148438 L 16.796875 0 L 18.375 -0.601562 L 19.046875 -2.175781 L 18.972656 -3.675781 L 19.046875 -5.324219 L 18.898438 -8.097656 L 19.046875 -9.523438 L 18.972656 -11.25 L 19.648438 -12.597656 L 21.371094 -13.421875 L 23.023438 -13.574219 L 24.597656 -13.273438 L 32.320312 -13.875 L 39.445312 -16.722656 L 40.570312 -17.625 L 41.621094 -18.824219 L 42.597656 -19.796875 L 43.570312 -20.921875 L 45.144531 -23.324219 L 46.421875 -26.246094 L 46.644531 -27.898438 L 47.09375 -29.097656 L 47.246094 -35.246094 L 46.945312 -36.519531 L 46.71875 -38.171875 L 45.820312 -40.945312 L 44.394531 -43.496094 L 42.597656 -45.96875 L 39.222656 -48.894531 L 36.746094 -50.546875 L 33.746094 -51.445312 L 32.472656 -51.96875 L 30.972656 -51.96875 L 29.472656 -52.496094 L 27.222656 -52.570312 L 24.824219 -52.496094 L 23.171875 -52.269531 L 18.597656 -52.34375 L 17.097656 -52.570312 L 12.449219 -52.269531 L 10.800781 -52.34375 L 9.449219 -52.570312 L 7.875 -52.269531 L 6.300781 -51.445312 L 5.625 -50.246094 L 5.699219 -41.171875 L 5.398438 -38.171875 L 5.550781 -36.746094 L 5.472656 -17.324219 L 5.625 -15.898438 L 5.550781 -2.023438 L 6.375 -0.601562 L 8.699219 0.148438 Z M 21.296875 -25.421875 L 19.796875 -26.324219 L 19.125 -27.597656 L 18.898438 -33.671875 L 19.046875 -35.246094 L 19.046875 -38.320312 L 19.796875 -39.746094 L 21.371094 -40.496094 L 29.171875 -40.269531 L 30.671875 -39.597656 L 31.871094 -38.769531 L 32.847656 -37.796875 L 33.597656 -36.296875 L 33.820312 -34.945312 L 33.972656 -32.847656 L 33.820312 -30.820312 L 33.296875 -29.472656 L 32.621094 -28.273438 L 31.648438 -27.074219 L 30.445312 -26.171875 L 29.246094 -25.796875 L 26.921875 -25.496094 L 23.097656 -25.574219 Z M 21.296875 -25.421875 "/></g></g></g></svg>